<svg width="35" height="35" viewBox="0 0 35 35" fill="none" xmlns="http://www.w3.org/2000/svg">
<g clip-path="url(#clip0_1709_202)">
<path d="M4.6 0C3.38179 0.00578484 2.21512 0.492284 1.3537 1.3537C0.492284 2.21512 0.00578484 3.38179 0 4.6V29.441C0.0073645 30.658 0.494623 31.8229 1.35593 32.6827C2.21723 33.5425 3.383 34.0278 4.6 34.033H29.441C30.6568 34.0262 31.8208 33.5402 32.6805 32.6805C33.5402 31.8208 34.0262 30.6568 34.033 29.441V4.6C34.0278 3.383 33.5425 2.21723 32.6827 1.35593C31.8229 0.494623 30.658 0.0073645 29.441 0H4.6ZM4.6 2.618H29.441C29.7015 2.61585 29.9598 2.66571 30.2008 2.76465C30.4418 2.8636 30.6606 3.00964 30.8445 3.19422C31.0283 3.3788 31.1735 3.59822 31.2714 3.8396C31.3694 4.08099 31.4182 4.33951 31.415 4.6V29.441C31.4174 29.7009 31.368 29.9587 31.2696 30.1993C31.1713 30.4398 31.026 30.6584 30.8422 30.8422C30.6584 31.026 30.4398 31.1713 30.1993 31.2696C29.9587 31.368 29.7009 31.4174 29.441 31.415H4.6C4.33934 31.4185 4.08061 31.3699 3.83899 31.272C3.59737 31.1742 3.37772 31.029 3.19292 30.8452C3.00812 30.6613 2.8619 30.4424 2.76284 30.2013C2.66377 29.9602 2.61385 29.7017 2.616 29.441V4.6C2.61305 4.33873 2.66236 4.07951 2.76105 3.83758C2.85973 3.59565 3.0058 3.37589 3.19064 3.19122C3.37549 3.00656 3.5954 2.86072 3.83743 2.76228C4.07946 2.66384 4.33873 2.61478 4.6 2.618ZM7.854 5.236C7.33621 5.236 6.83004 5.38954 6.39952 5.67721C5.96899 5.96488 5.63343 6.37376 5.43528 6.85213C5.23713 7.33051 5.18529 7.8569 5.2863 8.36475C5.38732 8.87259 5.63666 9.33907 6.00279 9.70521C6.36893 10.0713 6.83541 10.3207 7.34325 10.4217C7.8511 10.5227 8.37749 10.4709 8.85587 10.2727C9.33424 10.0746 9.74312 9.73901 10.0308 9.30848C10.3185 8.87796 10.472 8.37179 10.472 7.854C10.4699 7.16031 10.1934 6.49564 9.70287 6.00513C9.21236 5.51461 8.54769 5.23811 7.854 5.236ZM5.236 13.09V28.8H10.472V13.09H5.236ZM13.09 13.09V28.8H18.326V21.781C18.326 19.603 18.526 17.65 21.148 17.65C23.727 17.65 23.562 19.993 23.562 21.925V28.8H28.8V21.048C28.8 16.548 27.858 13.089 22.755 13.089C20.302 13.089 19.064 14.071 18.388 15.38H18.328V13.09H13.09Z" fill="#03458F"/>
</g>
<defs>
<clipPath id="clip0_1709_202">
<rect width="34.033" height="34.033" fill="white"/>
</clipPath>
</defs>
</svg>
