<svg width="35" height="35" viewBox="0 0 35 35" fill="none" xmlns="http://www.w3.org/2000/svg">
<g clip-path="url(#clip0_1709_209)">
<path d="M9.877 0C7.25932 0.00607444 4.7506 1.04863 2.89962 2.89962C1.04863 4.7506 0.00607444 7.25932 0 9.877V24.164C0.00792168 26.7805 1.0513 29.2874 2.90208 31.1369C4.75286 32.9863 7.26053 34.0279 9.877 34.034H24.164C26.7805 34.0261 29.2874 32.9827 31.1369 31.1319C32.9863 29.2811 34.0279 26.7735 34.034 24.157V9.877C34.0279 7.25915 32.9852 4.75027 31.134 2.89926C29.2828 1.04825 26.7738 0.00581041 24.156 0H9.877ZM9.877 2.618H24.156C25.1103 2.61483 26.0558 2.80045 26.938 3.16418C27.8203 3.5279 28.6219 4.06255 29.2967 4.73734C29.9715 5.41212 30.5061 6.21372 30.8698 7.09597C31.2335 7.97823 31.4192 8.92371 31.416 9.878V24.156C31.4196 25.1097 31.2345 26.0547 30.8714 26.9366C30.5083 27.8186 29.9744 28.6199 29.3004 29.2947C28.6264 29.9695 27.8256 30.5043 26.944 30.8683C26.0625 31.2324 25.1177 31.4185 24.164 31.416H9.877C8.92328 31.4196 7.97827 31.2345 7.09636 30.8714C6.21445 30.5083 5.41305 29.9744 4.73829 29.3004C4.06353 28.6264 3.52873 27.8256 3.16468 26.944C2.80062 26.0625 2.61449 25.1177 2.617 24.164V9.877C2.61383 8.92271 2.79945 7.97723 3.16318 7.09497C3.5269 6.21272 4.06155 5.41112 4.73634 4.73634C5.41112 4.06155 6.21272 3.5269 7.09497 3.16318C7.97723 2.79945 8.92271 2.61383 9.877 2.617V2.618ZM27.488 5.236C27.2292 5.23659 26.9764 5.31387 26.7616 5.45806C26.5467 5.60226 26.3794 5.8069 26.2808 6.04614C26.1822 6.28538 26.1567 6.54848 26.2075 6.80221C26.2584 7.05593 26.3833 7.28889 26.5665 7.47166C26.7496 7.65442 26.9829 7.7788 27.2367 7.82906C27.4906 7.87933 27.7536 7.85323 27.9926 7.75407C28.2316 7.65491 28.4359 7.48713 28.5796 7.27193C28.7233 7.05673 28.8 6.80377 28.8 6.545C28.8004 6.37274 28.7667 6.20209 28.7009 6.0429C28.635 5.88371 28.5384 5.73912 28.4164 5.61745C28.2945 5.49578 28.1497 5.39944 27.9903 5.33397C27.831 5.2685 27.6603 5.23521 27.488 5.236ZM17.017 7.854C15.2047 7.854 13.4332 8.3914 11.9263 9.39824C10.4195 10.4051 9.24502 11.8362 8.55149 13.5105C7.85797 15.1848 7.67651 17.0272 8.03006 18.8046C8.38362 20.5821 9.25631 22.2148 10.5378 23.4962C11.8192 24.7777 13.4519 25.6504 15.2294 26.0039C17.0068 26.3575 18.8492 26.176 20.5235 25.4825C22.1978 24.789 23.6289 23.6145 24.6358 22.1077C25.6426 20.6008 26.18 18.8293 26.18 17.017C26.1731 14.5889 25.2056 12.2623 23.4886 10.5454C21.7717 8.82845 19.4451 7.86086 17.017 7.854ZM17.017 10.472C18.314 10.4702 19.5824 10.8533 20.6616 11.5728C21.7408 12.2923 22.5822 13.3158 23.0794 14.5137C23.5765 15.7117 23.7071 17.0302 23.4545 18.3024C23.2019 19.5746 22.5775 20.7432 21.6604 21.6604C20.7432 22.5775 19.5746 23.2019 18.3024 23.4545C17.0302 23.7071 15.7117 23.5765 14.5137 23.0794C13.3158 22.5822 12.2923 21.7408 11.5728 20.6616C10.8533 19.5824 10.4702 18.314 10.472 17.017C10.4692 16.1567 10.6366 15.3044 10.9646 14.5091C11.2925 13.7137 11.7745 12.9911 12.3828 12.3828C12.9911 11.7745 13.7137 11.2925 14.5091 10.9646C15.3044 10.6366 16.1567 10.4692 17.017 10.472Z" fill="#03458F"/>
</g>
<defs>
<clipPath id="clip0_1709_209">
<rect width="34.033" height="34.033" fill="white"/>
</clipPath>
</defs>
</svg>
