<svg width="312" height="412" viewBox="0 0 312 412" fill="none" xmlns="http://www.w3.org/2000/svg">
<path d="M263.43 155.43C260.934 155.36 258.287 155.449 255.574 155.785C239.206 157.814 227.008 171.875 227.039 188.369C227.049 193.172 227.561 198.548 229.07 203.899C233.638 220.102 235.046 234.388 234.519 241.342L249.811 249.562C249.811 249.562 256.891 239.391 263.729 235.004C270.568 230.616 293.334 218.888 302.346 206.832C308.157 199.058 309.273 183.106 295.423 169.154C286.961 160.63 275.437 155.768 263.43 155.43Z" fill="#0E74BA"/>
<path d="M227.28 259.037L241.095 266.503L232.102 277.924L222.894 273.738L227.28 259.037Z" fill="#455964"/>
<path d="M227.952 259.497C227.829 259.453 229.199 255.353 231.013 250.34C232.826 245.325 234.396 241.298 234.518 241.342C234.641 241.387 233.271 245.485 231.455 250.5C229.643 255.514 228.074 259.542 227.952 259.497Z" fill="#253237"/>
<path d="M240.225 265.943C240.113 265.876 242.276 262.003 245.058 257.293C247.841 252.58 250.187 248.815 250.298 248.881C250.411 248.947 248.248 252.82 245.465 257.531C242.683 262.242 240.337 266.008 240.225 265.943Z" fill="#253237"/>
<path d="M268.035 155.863C267.416 155.899 259.815 164.796 256.452 170.818C245.138 191.078 244.631 210.795 241.491 233.786C241.042 237.07 239.409 244.153 239.44 243.987C241.114 245.3 246.74 247.912 246.74 247.912C246.74 247.912 252.045 241.508 254.154 238.287C262.595 225.391 271.76 215.338 278.987 201.723C286.214 188.108 293.169 176.035 286.481 162.148C286.481 162.148 274.898 155.48 268.035 155.863Z" fill="#FFE288"/>
<path d="M302.405 208.87C302.394 208.873 302.326 208.723 302.208 208.432C302.079 208.143 301.935 207.699 301.678 207.149C301.181 206.042 300.366 204.452 299.01 202.658C297.649 200.879 295.752 198.87 293.142 197.182C290.573 195.457 287.265 194.089 283.516 193.619L283.425 193.608L283.37 193.534C281.613 191.164 279.598 188.718 277.198 186.45C274.803 184.187 271.999 182.104 268.772 180.648C265.553 179.212 262.086 178.574 258.814 178.749C255.542 178.914 252.473 179.954 250.098 181.653L249.961 181.753L249.834 181.64C246.996 179.142 243.593 177.851 240.527 177.503C237.44 177.148 234.702 177.716 232.613 178.512C230.509 179.313 229.026 180.333 228.069 181.071C227.59 181.445 227.234 181.749 227.002 181.963C226.767 182.173 226.641 182.277 226.632 182.27C226.624 182.261 226.735 182.14 226.954 181.913C227.173 181.682 227.515 181.36 227.984 180.967C228.923 180.19 230.4 179.124 232.521 178.277C234.626 177.435 237.41 176.82 240.566 177.155C243.699 177.481 247.187 178.773 250.115 181.321L249.851 181.308C252.286 179.546 255.44 178.467 258.789 178.29C262.138 178.103 265.677 178.75 268.966 180.218C272.253 181.701 275.097 183.82 277.514 186.115C279.936 188.416 281.956 190.889 283.712 193.282L283.566 193.198C287.39 193.696 290.745 195.113 293.336 196.888C295.97 198.625 297.867 200.686 299.213 202.506C300.554 204.342 301.34 205.966 301.802 207.096C302.04 207.658 302.165 208.112 302.271 208.41C302.371 208.71 302.417 208.866 302.405 208.87Z" fill="#253237"/>
<path d="M273.978 229.058C273.885 229.09 273.903 227.676 272.66 225.735C272.032 224.793 271.094 223.723 269.723 222.917C268.386 222.088 266.595 221.531 264.663 221.717L264.472 221.736L264.442 221.546C264.136 219.582 263.322 217.492 261.933 215.639C260.552 213.797 258.618 212.152 256.261 211.235C254.325 210.465 252.264 210.195 250.328 210.326C248.389 210.465 246.579 211.016 245.044 211.819L244.901 211.895L244.787 211.775C243.258 210.137 241.286 209.217 239.477 208.898C237.661 208.531 236.005 208.716 234.716 209.048C232.101 209.761 230.988 211.023 230.936 210.923C230.929 210.915 230.997 210.846 231.138 210.717C231.284 210.597 231.485 210.392 231.787 210.182C232.382 209.75 233.328 209.192 234.648 208.803C235.96 208.427 237.661 208.202 239.541 208.551C241.413 208.853 243.479 209.78 245.101 211.488L244.844 211.444C246.424 210.6 248.291 210.019 250.294 209.868C252.294 209.723 254.427 209.998 256.435 210.796C258.883 211.75 260.882 213.459 262.298 215.369C263.723 217.289 264.547 219.455 264.842 221.487L264.621 221.316C266.665 221.139 268.526 221.753 269.897 222.635C271.301 223.496 272.244 224.622 272.859 225.61C273.471 226.612 273.741 227.503 273.871 228.111C273.938 228.415 273.948 228.656 273.97 228.815C273.986 228.974 273.99 229.057 273.978 229.058Z" fill="#253237"/>
<path d="M238.425 270.101C238.389 270.127 238.275 269.912 237.917 269.765C237.562 269.615 236.986 269.595 236.302 269.814C235.952 269.907 235.555 270.036 235.08 270.038C234.605 270.046 234.078 269.816 233.715 269.435C232.981 268.672 232.703 267.568 232.009 266.805C231.665 266.433 231.216 266.24 230.736 266.27C230.257 266.288 229.776 266.446 229.297 266.557C228.82 266.671 228.315 266.744 227.848 266.634C227.388 266.536 227.008 266.308 226.717 266.055C226.131 265.541 225.874 264.936 225.808 264.52C225.736 264.098 225.804 263.865 225.828 263.868C225.868 263.869 225.866 264.1 225.985 264.475C226.098 264.847 226.381 265.372 226.928 265.796C227.199 266.004 227.539 266.186 227.925 266.251C228.307 266.325 228.737 266.256 229.193 266.135C229.65 266.021 230.141 265.84 230.718 265.807C231.299 265.756 231.946 266.023 232.352 266.481C233.156 267.395 233.408 268.481 234.028 269.133C234.328 269.454 234.703 269.633 235.09 269.646C235.48 269.662 235.864 269.565 236.223 269.489C236.945 269.302 237.621 269.369 237.999 269.6C238.386 269.829 238.445 270.099 238.425 270.101Z" fill="#253237"/>
<path d="M240.009 267.884C239.948 267.999 236.93 266.509 233.27 264.556C229.609 262.603 226.69 260.927 226.752 260.812C226.813 260.697 229.83 262.186 233.492 264.14C237.153 266.092 240.07 267.769 240.009 267.884Z" fill="#253237"/>
<path d="M237.266 271.367C237.273 271.403 237.073 271.462 236.738 271.617C236.57 271.692 236.376 271.807 236.114 271.913C235.851 272.023 235.51 272.064 235.162 272.038C234.473 271.989 233.622 271.774 232.886 271.16C232.52 270.862 232.212 270.426 232.019 269.966C231.815 269.516 231.656 269.052 231.349 268.723C230.717 268.048 229.695 267.976 228.848 268.005C227.976 268.037 227.116 268.063 226.444 267.776C225.782 267.499 225.38 267.03 225.23 266.662C225.075 266.289 225.131 266.061 225.153 266.063C225.194 266.059 225.208 266.274 225.394 266.578C225.574 266.878 225.964 267.257 226.564 267.465C227.159 267.677 227.941 267.63 228.831 267.571C229.697 267.525 230.868 267.541 231.698 268.404C232.091 268.838 232.251 269.355 232.441 269.778C232.619 270.211 232.858 270.557 233.171 270.833C233.793 271.383 234.561 271.623 235.193 271.705C235.833 271.823 236.294 271.554 236.674 271.445C237.045 271.338 237.26 271.341 237.266 271.367Z" fill="#253237"/>
<path d="M230.703 164.886C219.92 151.755 221.754 133.51 226.669 118.026C227.49 115.441 227.975 112.609 229.858 110.668C231.742 108.727 235.077 107.974 237.105 109.729C238.787 111.185 238.998 113.676 239.56 115.844C240.306 118.729 241.882 121.385 244.042 123.406C245.461 124.734 247.37 125.838 249.264 125.394C251.863 124.783 253 121.748 253.712 119.147C255.038 114.301 256.365 109.456 257.691 104.61C258.403 102.011 259.139 99.3585 260.636 97.1216C262.135 94.8839 264.56 93.0966 267.223 93.0971C269.887 93.0985 272.54 95.3776 272.348 98.0643C272.269 99.183 271.747 100.22 271.517 101.317C271.286 102.415 271.454 103.748 272.394 104.335C273.345 104.93 274.589 104.484 275.577 103.943C278.991 102.073 281.755 99.2075 284.396 96.3271C287.037 93.4458 289.649 90.472 292.881 88.2946C296.114 86.1182 300.113 84.7965 303.888 85.6287C307.665 86.461 310.982 89.8654 310.897 93.7773C310.812 97.7016 307.637 100.815 304.483 103.125C299.805 106.553 294.638 109.296 289.196 111.24C288.215 111.591 287.153 111.97 286.57 112.844C285.521 114.416 286.677 116.594 288.227 117.642C289.98 118.829 292.135 119.217 294.092 120.023C296.049 120.829 297.991 122.336 298.221 124.463C298.539 127.414 295.543 129.573 292.849 130.781C287.454 133.203 281.655 134.683 275.783 135.141C273.678 135.304 271.497 135.354 269.581 136.263C267.665 137.173 266.081 139.245 266.499 141.334C266.917 143.425 269.139 144.68 271.243 144.869C273.346 145.059 275.441 144.475 277.548 144.29C281.493 143.945 286.03 145.482 287.451 149.206C288.384 151.653 287.724 154.512 286.288 156.714C284.852 158.916 282.728 160.565 280.554 162.025C272.956 167.128 264.124 170.476 255.045 171.025C245.967 171.573 238.082 170.199 230.703 164.886Z" fill="#F5F5F5"/>
<path d="M232.93 166.501C235.233 160.467 232.959 163.45 237.488 156.216C242.001 148.972 247.605 141.442 253.74 133.767C255.281 131.854 256.804 129.963 258.304 128.101C259.806 126.245 261.293 124.404 262.863 122.694C265.983 119.259 269.247 116.194 272.436 113.381C275.623 110.566 278.752 108.012 281.694 105.645C284.643 103.283 287.431 101.132 290.057 99.2816C295.3 95.5586 299.877 93.0626 303.087 91.4776C304.693 90.6789 305.956 90.1012 306.82 89.721C307.234 89.542 307.559 89.4003 307.804 89.2943C308.026 89.2017 308.142 89.157 308.145 89.1647C308.15 89.1735 308.04 89.2327 307.823 89.3408C307.585 89.4584 307.267 89.6137 306.861 89.813C306.013 90.2223 304.761 90.8282 303.171 91.6512C299.992 93.2879 295.46 95.8228 290.258 99.5712C287.652 101.435 284.881 103.595 281.948 105.969C279.02 108.349 275.907 110.911 272.735 113.728C269.563 116.542 266.319 119.603 263.219 123.024C261.662 124.728 260.189 126.553 258.685 128.415C257.186 130.277 255.666 132.167 254.125 134.08C247.997 141.749 242.393 149.252 237.871 156.462C233.338 163.66 235.593 160.631 233.256 166.628" fill="#DFDFDF"/>
<path d="M263.004 122.713C262.971 122.709 262.994 122.291 263.062 121.535C263.126 120.78 263.256 119.69 263.437 118.347C263.794 115.659 264.415 111.965 265.115 107.895C265.816 103.823 266.381 100.132 266.697 97.4464C266.859 96.1048 266.979 95.0172 267.052 94.2643C267.13 93.5116 267.189 93.0938 267.223 93.0952C267.257 93.0975 267.264 93.518 267.244 94.276C267.231 95.0341 267.163 96.1305 267.045 97.4815C266.818 100.185 266.304 103.9 265.603 107.976C264.902 111.991 264.268 115.622 263.784 118.398C263.573 119.653 263.395 120.71 263.253 121.559C263.125 122.305 263.039 122.717 263.004 122.713Z" fill="#DFDFDF"/>
<path d="M298.124 125.835C298.115 125.868 297.625 125.792 296.747 125.622C295.869 125.459 294.601 125.214 293.024 124.963C289.876 124.435 285.5 123.86 280.646 123.436C275.789 123.02 271.376 122.83 268.182 122.786C266.584 122.752 265.291 122.76 264.398 122.759C263.503 122.763 263.008 122.748 263.005 122.714C263.004 122.679 263.498 122.628 264.393 122.564C265.286 122.505 266.583 122.444 268.186 122.431C271.39 122.385 275.82 122.519 280.693 122.936C285.561 123.361 289.944 123.996 293.087 124.614C294.661 124.911 295.924 125.208 296.791 125.432C297.657 125.66 298.131 125.8 298.124 125.835Z" fill="#DFDFDF"/>
<path d="M238.07 155.717C238.053 155.719 238.014 155.558 237.954 155.246C237.892 154.876 237.816 154.425 237.723 153.879C237.526 152.69 237.289 150.964 237.021 148.827C236.483 144.553 235.926 138.625 235.4 132.076C234.873 125.524 234.371 119.599 233.923 115.32C233.699 113.239 233.515 111.526 233.377 110.253C233.321 109.701 233.276 109.247 233.238 108.873C233.211 108.557 233.204 108.39 233.222 108.386C233.239 108.385 233.279 108.546 233.337 108.859C233.4 109.228 233.476 109.678 233.57 110.225C233.766 111.413 234.004 113.14 234.271 115.277C234.81 119.552 235.366 125.479 235.892 132.03C236.419 138.58 236.921 144.504 237.369 148.785C237.592 150.866 237.777 152.579 237.914 153.851C237.971 154.403 238.016 154.858 238.054 155.231C238.081 155.547 238.087 155.715 238.07 155.717Z" fill="#DFDFDF"/>
<path d="M286.419 153.862C286.419 153.88 286.249 153.899 285.928 153.92C285.548 153.94 285.083 153.963 284.519 153.991C283.222 154.044 281.47 154.114 279.339 154.198C274.965 154.374 268.927 154.686 262.256 155.04C255.582 155.395 249.535 155.651 245.157 155.737C242.967 155.78 241.196 155.797 239.97 155.784C239.406 155.774 238.94 155.766 238.561 155.761C238.238 155.75 238.069 155.735 238.069 155.718C238.07 155.701 238.238 155.681 238.559 155.659C238.938 155.64 239.403 155.617 239.968 155.589C241.266 155.537 243.017 155.468 245.147 155.383C249.521 155.207 255.56 154.894 262.234 154.54C268.906 154.186 274.951 153.928 279.331 153.844C281.521 153.8 283.292 153.783 284.517 153.796C285.082 153.806 285.548 153.813 285.927 153.819C286.249 153.831 286.418 153.845 286.419 153.862Z" fill="#DFDFDF"/>
<path d="M181.168 349.437L234.212 351.707L235.492 354.797L200.728 411.225L137.969 409.396L181.168 349.437Z" fill="#253237"/>
<path d="M135.587 403.894L198.724 407.501L231.701 356.325L208.546 358.208L149.937 378.847L135.587 403.894Z" fill="#DFDFDF"/>
<path d="M126.719 400.099L184.697 401.015C182.288 393.597 187.968 383.15 195.763 379.637C200.928 377.309 210.651 374.29 215.666 371.718C225.197 366.829 233.81 357.569 233.056 349.625L209.245 348.866L178.853 347.691C176.311 355.231 170.875 360.17 162.612 363.14C155.216 365.799 146.799 365.793 139.586 368.814C127.975 373.677 122.397 389.431 126.719 400.099Z" fill="#EBEBEB"/>
<path d="M126.72 400.1C126.72 400.1 126.665 399.976 126.575 399.726C126.481 399.463 126.349 399.09 126.178 398.608C125.975 398.121 125.858 397.482 125.684 396.73C125.476 395.985 125.406 395.092 125.284 394.09C125.137 392.084 125.157 389.577 125.745 386.719C126.334 383.874 127.455 380.668 129.463 377.518C129.983 376.745 130.483 375.928 131.132 375.187C131.445 374.812 131.74 374.41 132.081 374.041C132.433 373.684 132.791 373.321 133.152 372.956C133.499 372.575 133.899 372.243 134.311 371.914C134.721 371.587 135.118 371.232 135.552 370.917C136.461 370.347 137.343 369.679 138.376 369.233C142.392 367.207 147.193 366.353 152.19 365.447C154.696 364.992 157.276 364.514 159.867 363.801C162.445 363.07 165.044 362.093 167.509 360.726C168.748 360.057 169.945 359.274 171.077 358.386C172.218 357.509 173.285 356.512 174.242 355.398C176.19 353.195 177.658 350.516 178.647 347.622L178.7 347.469L178.863 347.474C186.934 347.783 195.405 348.105 204.185 348.439C212.965 348.784 222.058 349.022 231.366 349.334C231.938 349.353 232.509 349.372 233.064 349.389L233.274 349.396L233.293 349.604C233.453 351.44 233.117 353.267 232.525 354.962C232.256 355.825 231.842 356.622 231.464 357.432C231.016 358.204 230.599 358.993 230.077 359.712C228.1 362.664 225.568 365.135 222.894 367.305C220.198 369.461 217.273 371.25 214.227 372.66C211.169 374.035 208.072 375.156 205.038 376.278C202.007 377.399 199.009 378.463 196.161 379.702C194.765 380.352 193.423 381.093 192.261 382.069C191.645 382.508 191.13 383.065 190.568 383.559C190.072 384.118 189.519 384.626 189.079 385.224C187.207 387.521 185.8 390.124 185.025 392.844C184.204 395.545 184.112 398.402 184.881 400.954L184.959 401.212L184.694 401.208C167.133 400.896 152.645 400.639 142.53 400.459C137.489 400.356 133.541 400.278 130.837 400.223C129.503 400.19 128.478 400.164 127.77 400.147C127.077 400.126 126.72 400.1 126.72 400.1C126.72 400.1 127.077 400.086 127.771 400.088C128.479 400.092 129.504 400.098 130.839 400.107C133.544 400.137 137.492 400.182 142.534 400.239C152.649 400.378 167.139 400.579 184.701 400.822L184.514 401.075C183.709 398.43 183.805 395.49 184.636 392.731C185.423 389.951 186.849 387.302 188.752 384.959C189.202 384.349 189.761 383.828 190.268 383.256C190.84 382.752 191.365 382.185 191.995 381.733C193.178 380.737 194.561 379.969 195.985 379.304C198.857 378.05 201.853 376.983 204.883 375.857C207.914 374.733 211.006 373.608 214.037 372.243C217.043 370.848 219.94 369.074 222.605 366.941C225.247 364.793 227.748 362.35 229.689 359.449C230.201 358.743 230.607 357.969 231.046 357.213C231.415 356.423 231.821 355.643 232.081 354.806C232.656 353.16 232.975 351.4 232.823 349.648L233.05 349.861C232.494 349.844 231.923 349.824 231.352 349.807C222.043 349.493 212.95 349.253 204.169 348.901C195.388 348.557 186.917 348.225 178.846 347.909L179.06 347.761C178.051 350.701 176.551 353.432 174.559 355.674C173.582 356.809 172.492 357.822 171.33 358.712C170.178 359.613 168.961 360.404 167.704 361.081C165.202 362.461 162.577 363.442 159.969 364.175C157.354 364.887 154.763 365.359 152.254 365.808C147.253 366.697 142.482 367.537 138.517 369.519C137.499 369.953 136.631 370.606 135.731 371.164C135.302 371.473 134.908 371.822 134.502 372.143C134.095 372.465 133.699 372.791 133.354 373.166C132.996 373.526 132.642 373.881 132.291 374.232C131.954 374.595 131.66 374.991 131.348 375.363C130.704 376.091 130.205 376.898 129.685 377.661C127.683 380.768 126.55 383.942 125.945 386.763C125.343 389.594 125.301 392.084 125.424 394.08C125.536 395.076 125.593 395.964 125.789 396.708C125.95 397.458 126.056 398.098 126.247 398.586C126.403 399.073 126.524 399.446 126.609 399.713C126.689 399.966 126.72 400.1 126.72 400.1Z" fill="#253237"/>
<path d="M195.141 348.631C195.099 348.619 195.217 348.258 195.272 347.594C195.323 346.936 195.28 345.948 194.816 344.856C194.37 343.779 193.481 342.583 192.075 341.92C190.691 341.252 188.863 341.114 187.191 341.744C185.506 342.362 184.293 343.735 183.661 345.142C183.004 346.559 182.915 348.019 183.103 349.179C183.293 350.351 183.736 351.23 184.094 351.789C184.454 352.353 184.721 352.619 184.691 352.648C184.675 352.666 184.36 352.443 183.943 351.895C183.528 351.352 183.017 350.461 182.774 349.239C182.534 348.03 182.589 346.476 183.264 344.964C183.91 343.464 185.201 341.972 187.024 341.303C188.825 340.624 190.782 340.788 192.267 341.529C193.777 342.272 194.696 343.582 195.126 344.732C195.573 345.902 195.564 346.941 195.455 347.616C195.399 347.955 195.329 348.215 195.261 348.382C195.198 348.551 195.157 348.637 195.141 348.631Z" fill="#253237"/>
<path d="M204.228 348.631C204.185 348.619 204.303 348.258 204.359 347.594C204.408 346.936 204.366 345.948 203.903 344.856C203.456 343.779 202.567 342.583 201.161 341.92C199.777 341.252 197.949 341.114 196.276 341.744C194.592 342.362 193.379 343.735 192.747 345.142C192.09 346.559 192 348.019 192.189 349.179C192.379 350.351 192.823 351.23 193.18 351.789C193.539 352.353 193.807 352.619 193.778 352.648C193.762 352.666 193.447 352.443 193.029 351.895C192.614 351.352 192.103 350.461 191.861 349.239C191.62 348.03 191.675 346.476 192.35 344.964C192.996 343.464 194.288 341.972 196.11 341.303C197.91 340.624 199.869 340.788 201.353 341.529C202.864 342.272 203.783 343.582 204.213 344.732C204.659 345.902 204.65 346.941 204.54 347.616C204.484 347.955 204.415 348.215 204.347 348.382C204.284 348.551 204.243 348.637 204.228 348.631Z" fill="#253237"/>
<path d="M211.129 349.103C211.087 349.092 211.184 348.728 211.2 348.061C211.214 347.401 211.113 346.415 210.591 345.352C210.083 344.301 209.13 343.158 207.689 342.576C206.269 341.988 204.434 341.953 202.8 342.677C201.154 343.389 200.021 344.828 199.47 346.269C198.893 347.721 198.887 349.185 199.141 350.331C199.397 351.491 199.889 352.344 200.278 352.882C200.668 353.425 200.95 353.675 200.923 353.706C200.907 353.724 200.581 353.519 200.133 352.996C199.688 352.477 199.127 351.616 198.816 350.409C198.507 349.216 198.475 347.662 199.063 346.114C199.623 344.578 200.829 343.019 202.61 342.247C204.369 341.468 206.333 341.519 207.857 342.175C209.407 342.829 210.399 344.086 210.893 345.211C211.405 346.352 211.455 347.392 211.385 348.072C211.347 348.414 211.294 348.677 211.234 348.847C211.181 349.02 211.146 349.107 211.129 349.103Z" fill="#253237"/>
<path d="M218.528 349.525C218.484 349.516 218.562 349.147 218.545 348.48C218.523 347.82 218.371 346.842 217.793 345.808C217.23 344.785 216.216 343.694 214.747 343.188C213.298 342.677 211.465 342.738 209.872 343.549C208.265 344.347 207.209 345.844 206.735 347.311C206.237 348.792 206.308 350.254 206.623 351.387C206.939 352.531 207.476 353.355 207.893 353.872C208.312 354.394 208.607 354.629 208.58 354.66C208.567 354.68 208.23 354.492 207.754 353.993C207.283 353.5 206.677 352.669 206.303 351.482C205.93 350.306 205.815 348.756 206.321 347.178C206.798 345.616 207.919 343.994 209.658 343.128C211.374 342.257 213.338 342.205 214.894 342.779C216.477 343.352 217.534 344.554 218.087 345.652C218.659 346.764 218.764 347.799 218.729 348.481C218.709 348.826 218.669 349.09 218.62 349.264C218.576 349.438 218.544 349.528 218.528 349.525Z" fill="#253237"/>
<path d="M225.941 349.351C225.897 349.344 225.965 348.972 225.928 348.306C225.888 347.647 225.709 346.674 225.101 345.656C224.51 344.65 223.467 343.587 221.983 343.123C220.52 342.652 218.69 342.766 217.12 343.621C215.537 344.464 214.523 345.99 214.091 347.471C213.634 348.965 213.746 350.423 214.092 351.547C214.441 352.682 215.001 353.491 215.431 353.996C215.865 354.505 216.167 354.732 216.142 354.764C216.128 354.784 215.786 354.606 215.297 354.121C214.812 353.64 214.183 352.827 213.774 351.651C213.371 350.486 213.213 348.939 213.673 347.348C214.107 345.772 215.181 344.12 216.895 343.206C218.585 342.287 220.547 342.18 222.119 342.711C223.717 343.238 224.809 344.41 225.391 345.492C225.995 346.587 226.127 347.619 226.112 348.302C226.103 348.647 226.07 348.912 226.026 349.088C225.986 349.264 225.957 349.354 225.941 349.351Z" fill="#253237"/>
<path d="M232.188 350.184C232.144 350.175 232.227 349.806 232.217 349.139C232.203 348.479 232.063 347.499 231.496 346.458C230.946 345.429 229.945 344.326 228.482 343.804C227.039 343.276 225.205 343.316 223.602 344.107C221.987 344.886 220.913 346.37 220.421 347.832C219.906 349.306 219.96 350.769 220.261 351.906C220.565 353.053 221.091 353.885 221.502 354.405C221.915 354.931 222.206 355.171 222.18 355.202C222.167 355.221 221.832 355.03 221.362 354.525C220.895 354.025 220.3 353.188 219.94 351.996C219.581 350.817 219.486 349.265 220.01 347.694C220.505 346.137 221.645 344.528 223.394 343.683C225.119 342.833 227.085 342.804 228.634 343.396C230.21 343.987 231.253 345.201 231.792 346.305C232.352 347.425 232.444 348.461 232.401 349.142C232.377 349.487 232.333 349.751 232.283 349.925C232.236 350.099 232.204 350.187 232.188 350.184Z" fill="#253237"/>
<path d="M72.9712 211.831C72.9712 211.831 66.7626 215.304 76.0548 228.245C85.3478 241.185 91.3634 247.376 91.3634 247.376C91.3634 247.376 93.1289 250.44 90.4645 251.362C87.8001 252.286 81.6163 252.242 80.905 255.783C80.1679 259.455 83.1957 262.353 88.7576 264.452C94.3204 266.552 106.338 271.599 107.424 272.059C108.488 272.512 109.695 273.878 107.982 274.798C106.267 275.718 92.9038 279.202 94.9363 285.444C96.9688 291.685 113.427 294.988 115.219 295.383C117.011 295.78 117.525 296.436 117.529 297.386C117.532 298.336 112.931 299.084 109.17 300.23C105.41 301.377 101.25 303.365 102.725 306.869C104.199 310.372 114.601 316.619 137.364 315.404L147.876 314.151L152.223 304.447C160.261 283.116 157.449 271.313 154.555 268.849C151.662 266.384 148.509 269.747 146.28 272.985C144.05 276.223 141.947 280.384 141.043 280.094C140.138 279.802 139.668 279.114 139.832 277.287C139.997 275.459 141.822 258.773 136.487 254.948C131.151 251.125 123.792 262.81 122.397 264.166C121.003 265.522 120.064 263.958 119.955 262.806C119.844 261.633 118.665 248.652 118.345 242.715C118.025 236.777 116.177 233.016 112.454 232.609C108.864 232.216 107.037 238.125 105.351 240.385C103.666 242.646 101.279 240.037 101.279 240.037C101.279 240.037 97.1961 232.431 87.6689 219.663C78.1435 206.893 72.8507 211.911 72.8507 211.911" fill="#EBEBEB"/>
<path d="M148.794 316.528C141.833 307.123 129.745 290.199 119.291 275.722C108.841 261.251 99.3665 248.157 92.456 238.718C89.0009 234.009 86.2025 230.196 84.2604 227.548C83.2995 226.237 82.5507 225.214 82.0334 224.508C81.7883 224.166 81.5974 223.902 81.4598 223.712C81.3328 223.532 81.2754 223.435 81.2754 223.435C81.2754 223.435 81.3516 223.518 81.4871 223.692C81.6312 223.877 81.8296 224.135 82.0861 224.468C82.6146 225.165 83.3803 226.176 84.3629 227.471C86.3358 230.079 89.1643 233.876 92.6421 238.58C99.6016 247.986 109.107 261.058 119.557 275.53C130.011 290.007 142.069 306.951 148.98 316.391" fill="#DFDFDF"/>
<path d="M89.5537 256.192C89.5582 256.17 89.8285 256.204 90.3142 256.284C90.8008 256.363 91.4991 256.497 92.3613 256.671C94.085 257.021 96.4527 257.566 99.0565 258.214C101.619 258.863 103.939 259.449 105.713 259.898C106.513 260.095 107.189 260.262 107.731 260.395C108.209 260.511 108.472 260.585 108.467 260.608C108.463 260.63 108.193 260.597 107.706 260.521C107.22 260.441 106.52 260.307 105.66 260.125C103.94 259.756 101.578 259.181 98.9773 258.533C96.4089 257.902 94.0875 257.333 92.3113 256.896C91.5086 256.703 90.8318 256.541 90.2884 256.409C89.8116 256.29 89.5493 256.214 89.5537 256.192Z" fill="#DFDFDF"/>
<path d="M109.081 259.829C108.991 259.812 109.899 254.879 111.108 248.815C112.317 242.747 113.369 237.845 113.459 237.863C113.548 237.88 112.64 242.812 111.431 248.879C110.221 254.943 109.169 259.847 109.081 259.829Z" fill="#DFDFDF"/>
<path d="M124.128 282.781C124.108 282.769 124.226 282.517 124.455 282.07C124.718 281.565 125.047 280.934 125.436 280.186C126.262 278.595 127.394 276.392 128.553 273.915C129.718 271.441 130.694 269.166 131.388 267.511C131.717 266.734 131.992 266.079 132.212 265.553C132.41 265.092 132.528 264.84 132.55 264.848C132.571 264.856 132.492 265.123 132.333 265.599C132.171 266.075 131.926 266.76 131.604 267.599C130.966 269.277 130.019 271.573 128.851 274.055C127.688 276.538 126.521 278.731 125.641 280.297C125.197 281.078 124.833 281.707 124.567 282.133C124.303 282.561 124.149 282.793 124.128 282.781Z" fill="#DFDFDF"/>
<path d="M105.743 283.379C105.742 283.356 105.998 283.322 106.459 283.281C106.992 283.243 107.646 283.196 108.418 283.141C110.073 283.036 112.361 282.913 114.888 282.799C117.416 282.685 119.705 282.6 121.362 282.554C122.137 282.54 122.792 282.528 123.327 282.518C123.79 282.516 124.047 282.527 124.048 282.549C124.049 282.572 123.794 282.605 123.331 282.645C122.799 282.684 122.144 282.731 121.373 282.787C119.718 282.891 117.431 283.013 114.903 283.128C112.375 283.243 110.086 283.328 108.429 283.373C107.656 283.387 106.998 283.4 106.466 283.41C106.001 283.411 105.744 283.401 105.743 283.379Z" fill="#DFDFDF"/>
<path d="M116.455 305.328C116.453 305.305 116.78 305.264 117.372 305.213C118.026 305.164 118.87 305.1 119.882 305.022C122.003 304.876 124.932 304.697 128.169 304.52C131.408 304.342 134.342 304.2 136.465 304.114C137.48 304.079 138.324 304.05 138.98 304.027C139.574 304.014 139.904 304.018 139.905 304.041C139.906 304.063 139.579 304.103 138.987 304.155C138.334 304.205 137.49 304.269 136.478 304.346C134.357 304.492 131.428 304.67 128.188 304.848C124.951 305.026 122.017 305.168 119.894 305.256C118.88 305.29 118.036 305.319 117.38 305.34C116.786 305.353 116.456 305.349 116.455 305.328Z" fill="#DFDFDF"/>
<path d="M139.336 303.914C139.316 303.904 139.456 303.58 139.727 303.004C140.025 302.376 140.414 301.557 140.884 300.57C141.86 298.514 143.196 295.67 144.582 292.488C145.973 289.308 147.156 286.396 147.999 284.283C148.405 283.267 148.74 282.425 148.998 281.78C149.237 281.189 149.379 280.867 149.4 280.873C149.421 280.882 149.32 281.219 149.119 281.824C148.916 282.428 148.611 283.298 148.217 284.366C147.429 286.503 146.277 289.434 144.884 292.619C143.495 295.806 142.123 298.641 141.093 300.672C140.575 301.686 140.148 302.503 139.841 303.061C139.534 303.62 139.356 303.924 139.336 303.914Z" fill="#DFDFDF"/>
<path d="M28.5168 197.194L32.294 203.244C32.294 203.244 48.407 188.417 64.3907 192.608C64.3907 192.608 50.0258 180.427 28.5168 197.194Z" fill="#0E74BA"/>
<path d="M64.3907 192.609C64.3907 192.609 76.2182 179.766 93.5605 182.695L98.2905 183.408L96.7801 180.676C96.7801 180.676 66.6175 170.345 64.3907 192.609Z" fill="#0E74BA"/>
<path d="M39.4265 149.302C39.4265 149.302 15.7364 145.225 0.196289 153.633L24.8687 200.087C24.8687 200.087 45.0657 180.619 64.3897 192.608L39.4265 149.302Z" fill="#F5F5F5"/>
<path d="M39.4266 149.303C39.4304 149.298 39.4732 149.361 39.553 149.492C39.6423 149.638 39.7572 149.83 39.9073 150.077C40.2265 150.616 40.6835 151.388 41.2725 152.385C42.4704 154.435 44.2061 157.41 46.4082 161.178C50.8209 168.791 57.0938 179.607 64.5722 192.505C64.6292 192.604 64.595 192.732 64.4962 192.79C64.4268 192.83 64.3432 192.825 64.2796 192.786C61.6006 191.141 58.5226 189.893 55.1985 189.3C53.5332 189.026 51.8165 188.91 50.0771 188.945C48.3386 189.015 46.582 189.235 44.8312 189.604C37.8335 191.158 31.0362 194.958 25.2346 200.069L25.0332 200.258C24.9391 200.348 24.79 200.345 24.6988 200.252C24.6845 200.237 24.6703 200.216 24.6608 200.198C15.4952 182.909 6.99932 166.882 0.0234658 153.724C-0.0268819 153.633 0.00636793 153.517 0.098518 153.465L0.103265 153.463C5.53632 150.653 11.0492 149.435 15.8942 148.789C20.7629 148.161 25.037 148.14 28.5311 148.239C32.029 148.355 34.7564 148.636 36.6061 148.865C37.5314 148.977 38.2372 149.085 38.7113 149.164C38.9355 149.204 39.1131 149.235 39.249 149.259C39.3715 149.284 39.4295 149.299 39.4266 149.303C39.4238 149.306 39.3601 149.302 39.2414 149.287C39.1046 149.271 38.9279 149.249 38.7018 149.222C38.2258 149.163 37.5181 149.074 36.5928 148.98C34.7412 148.789 32.0147 148.544 28.5254 148.462C25.0389 148.395 20.7772 148.448 15.935 149.1C11.1166 149.77 5.64557 151.009 0.288515 153.804L0.367365 153.542C7.36317 166.689 15.8856 182.702 25.0778 199.977L24.7054 199.918L24.9173 199.721C27.8414 197.102 31.0381 194.906 34.3622 193.094C37.6938 191.297 41.186 189.923 44.7362 189.157C46.5127 188.784 48.2968 188.563 50.0647 188.495C51.8346 188.463 53.5778 188.583 55.2736 188.866C58.6556 189.475 61.7858 190.754 64.5009 192.431L64.2093 192.713C56.8135 179.807 50.6081 168.981 46.2429 161.364C44.0788 157.56 42.3716 154.559 41.1936 152.49C40.6217 151.471 40.1781 150.683 39.8684 150.132C39.7259 149.873 39.6176 149.672 39.533 149.519C39.4589 149.38 39.4238 149.307 39.4266 149.303Z" fill="#253237"/>
<path d="M76.6648 139.77C76.6648 139.77 58.744 128.349 39.7297 149.303L64.6948 192.61C64.6948 192.61 69.7896 175.031 99.5949 181.145L76.6648 139.77Z" fill="#F5F5F5"/>
<path d="M76.6657 139.77C76.6704 139.766 76.7104 139.829 76.7854 139.953C76.868 140.093 76.9754 140.277 77.1141 140.512C77.4086 141.029 77.8294 141.767 78.3709 142.718C79.472 144.677 81.067 147.516 83.0896 151.115C87.1404 158.382 92.9012 168.712 99.7773 181.045C99.8334 181.146 99.7972 181.272 99.6965 181.328C99.6538 181.352 99.6063 181.358 99.5626 181.352L99.5541 181.349C98.1015 181.11 96.6223 180.867 95.1156 180.62C94.3661 180.469 93.5966 180.427 92.8233 180.366C92.049 180.305 91.27 180.241 90.4834 180.178C89.6987 180.086 88.9045 180.106 88.1037 180.122C87.3038 180.132 86.4982 180.142 85.6869 180.153C84.8756 180.171 84.0681 180.318 83.2501 180.395C82.4351 180.499 81.6038 180.54 80.8001 180.764C79.9888 180.947 79.1727 181.133 78.351 181.318C77.5568 181.596 76.7588 181.875 75.956 182.156C75.1514 182.435 74.4123 182.877 73.6314 183.233C73.2352 183.403 72.8723 183.634 72.5132 183.872L71.4207 184.572C70.7007 185.053 70.0556 185.646 69.3744 186.193C68.7759 186.828 68.1014 187.4 67.5789 188.114C66.4589 189.463 65.5022 191.019 64.9227 192.675L64.918 192.688C64.8752 192.811 64.7403 192.875 64.6168 192.832C64.5627 192.813 64.519 192.774 64.4914 192.727C64.1741 192.176 63.8293 191.578 63.4844 190.981C54.658 175.64 46.4319 161.347 39.5577 149.401C39.515 149.325 39.5273 149.23 39.5843 149.169C43.8052 144.565 48.464 141.052 53.1076 139.001C57.7407 136.898 62.2608 136.376 65.8651 136.608C69.4922 136.833 72.2406 137.714 74.0266 138.435C74.9234 138.797 75.5827 139.138 76.0216 139.375C76.2268 139.495 76.3864 139.588 76.5108 139.66C76.6182 139.731 76.6695 139.767 76.6657 139.77C76.6619 139.774 76.6039 139.746 76.4937 139.687C76.3674 139.621 76.203 139.537 75.9931 139.429C75.5466 139.212 74.8806 138.891 73.981 138.549C72.1903 137.866 69.4495 137.027 65.8518 136.838C62.277 136.642 57.812 137.191 53.2396 139.297C48.6559 141.353 44.055 144.852 39.8779 149.436L39.9035 149.204C46.7958 161.139 55.0427 175.419 63.8939 190.746C64.2387 191.344 64.5817 191.94 64.8999 192.491L64.4686 192.544C65.089 190.771 66.0609 189.212 67.2141 187.817C67.7519 187.086 68.4425 186.496 69.0581 185.845C69.7544 185.286 70.4166 184.681 71.1528 184.189L72.27 183.475C72.6386 183.232 73.0092 182.996 73.4129 182.821C74.2099 182.459 74.9661 182.008 75.785 181.726C76.603 181.441 77.4162 181.159 78.2246 180.878C79.0588 180.69 79.8881 180.502 80.7118 180.317C81.5287 180.093 82.3704 180.048 83.196 179.945C84.0234 179.868 84.8423 179.723 85.6631 179.705C86.483 179.697 87.2962 179.687 88.1046 179.679C88.914 179.665 89.7159 179.646 90.5063 179.741C91.2985 179.805 92.0842 179.871 92.8641 179.934C93.6432 179.998 94.4193 180.044 95.1736 180.197C96.6889 180.449 98.1775 180.698 99.6376 180.942L99.4134 181.247C92.6086 168.894 86.9095 158.548 82.9006 151.269C80.9188 147.641 79.3542 144.78 78.275 142.805C77.7534 141.836 77.3487 141.085 77.0656 140.559C76.9364 140.313 76.8377 140.123 76.7617 139.975C76.6932 139.844 76.6619 139.774 76.6657 139.77Z" fill="#253237"/>
<path d="M6.86816 131.303L33.586 182.746C33.586 182.746 55.3001 181.796 64.4904 192.378L39.7296 149.302C39.7296 149.302 25.2098 131.303 6.86816 131.303Z" fill="#F5F5F5"/>
<path d="M6.86921 131.303C6.86921 131.303 7.08866 131.307 7.54656 131.324C8.03296 131.344 8.71981 131.373 9.60711 131.409C9.83321 131.423 10.0774 131.423 10.3291 131.451C10.5761 131.492 10.8364 131.536 11.1091 131.58C11.6563 131.671 12.2519 131.769 12.8951 131.877C13.5468 131.954 14.2165 132.174 14.9414 132.366C15.6586 132.584 16.449 132.731 17.2328 133.043C23.6187 135.168 32.182 140.319 39.8817 149.181L39.896 149.201L39.8988 149.206C46.9478 161.445 55.4826 176.264 64.6967 192.261C64.7613 192.375 64.7223 192.518 64.6093 192.583C64.5162 192.637 64.4003 192.619 64.3262 192.546L64.3138 192.533C63.9832 192.204 63.6241 191.848 63.265 191.492C61.2786 189.565 58.9264 188.045 56.426 186.972C53.9398 185.873 51.3729 185.023 48.7832 184.467C43.62 183.307 38.4662 182.871 33.5975 182.968H33.5908C33.5044 182.97 33.4284 182.921 33.3913 182.849C25.6032 167.745 18.9494 154.841 14.2317 145.693C11.9052 141.161 10.0565 137.56 8.78061 135.073C8.15931 133.858 7.67956 132.917 7.34326 132.259C7.19031 131.955 7.07061 131.718 6.98131 131.54C6.90151 131.38 6.86351 131.3 6.86921 131.303C6.87491 131.306 6.92336 131.393 7.01266 131.56C7.11051 131.742 7.24066 131.985 7.40691 132.297C7.75841 132.962 8.26001 133.912 8.90791 135.14C10.2161 137.629 12.1094 141.232 14.492 145.768C19.2411 154.848 25.9414 167.654 33.7827 182.645L33.5775 182.526C38.5033 182.419 43.6694 182.852 48.8868 184.015C51.4993 184.574 54.0966 185.429 56.6198 186.542C59.1553 187.631 61.5569 189.178 63.5956 191.154C63.9642 191.52 64.3309 191.886 64.6701 192.224L64.2872 192.496C55.1007 176.483 46.5916 161.651 39.5625 149.398L39.5806 149.423C35.8195 145.002 31.7184 141.54 27.8851 138.842C24.0167 136.183 20.3364 134.332 17.1606 133.252C16.3835 132.934 15.5997 132.781 14.8891 132.556C14.1719 132.356 13.5069 132.13 12.8609 132.044C12.2225 131.929 11.6316 131.82 11.0882 131.722C10.8174 131.672 10.559 131.626 10.313 131.581C10.0669 131.55 9.83511 131.543 9.61566 131.524C7.98451 131.392 7.22641 131.331 6.86921 131.303Z" fill="#253237"/>
<path d="M59.3167 247.548C59.0649 258.011 50.3797 266.286 39.9185 266.034C29.4573 265.782 21.1803 257.099 21.4322 246.636C21.684 236.175 30.3692 227.899 40.8304 228.151C51.2917 228.403 59.5686 237.087 59.3167 247.548Z" fill="#0E74BA"/>
<path d="M37.7704 252.946C37.7293 254.653 36.3123 256.002 34.6066 255.961C32.8999 255.92 31.5504 254.504 31.5915 252.797C31.6326 251.091 33.0487 249.741 34.7553 249.782C36.4611 249.823 37.8115 251.239 37.7704 252.946Z" fill="white"/>
<path d="M33.602 243.926C33.5781 244.918 32.7543 245.703 31.7619 245.679C30.7694 245.655 29.9843 244.831 30.0082 243.839C30.0321 242.847 30.8559 242.061 31.8484 242.084C32.8409 242.108 33.6259 242.933 33.602 243.926Z" fill="white"/>
<path d="M21.8873 251.257C21.9649 251.588 5.2921 266.832 9.41255 270.264C13.532 273.696 31.4093 265.576 46.7658 253.772C62.1223 241.968 76.2395 227.524 72.567 223.522C68.8955 219.522 49.7913 230.647 49.7913 230.647L52.0066 232.136C52.0066 232.136 63.5639 225.107 67.0961 228.029C70.6283 230.95 60.099 241.774 45.3593 251.999C30.6205 262.224 16.4457 269.31 14.3425 266.361C12.2402 263.411 22.7241 253.995 22.7241 253.995L21.8873 251.257Z" fill="#0E74BA"/>
<path d="M21.8873 251.256C21.9649 251.587 5.2921 266.832 9.41255 270.264C13.532 273.696 31.4093 265.576 46.7658 253.772C62.1223 241.968 76.2395 227.524 72.567 223.522C68.8955 219.522 49.7913 230.647 49.7913 230.647L52.0066 232.136C52.0066 232.136 63.5639 225.107 67.0961 228.029C70.6283 230.95 60.099 241.774 45.3593 251.999C30.6205 262.224 16.4457 269.31 14.3425 266.361C12.2402 263.411 22.7241 253.995 22.7241 253.995L21.8873 251.256Z" fill="#0E74BA"/>
<path d="M30.2582 233.499C30.4067 233.685 29.0964 234.745 27.5907 236.897C26.0848 239.015 24.4812 242.39 24.3034 246.343C24.1331 250.299 25.4343 253.801 26.7477 256.044C28.0585 258.321 29.2704 259.49 29.1057 259.663C29.0075 259.793 27.5053 258.877 25.8752 256.603C25.0633 255.475 24.2626 253.998 23.6788 252.237C23.0929 250.481 22.7536 248.432 22.8386 246.28C22.9437 244.127 23.4606 242.117 24.1989 240.42C24.9345 238.717 25.8625 237.316 26.7697 236.263C28.5949 234.142 30.1703 233.36 30.2582 233.499Z" fill="white"/>
<path d="M233.451 70.8818C233.656 62.252 240.817 55.4224 249.447 55.6267C258.077 55.8319 264.906 62.993 264.702 71.6228C264.497 80.2526 257.336 87.0821 248.706 86.8779C240.076 86.6727 233.246 79.5116 233.451 70.8818Z" fill="#0E74BA"/>
<path d="M254.168 65.2654C254.202 63.8584 255.37 62.7441 256.778 62.7773C258.186 62.8115 259.298 63.9791 259.265 65.386C259.232 66.7939 258.064 67.9083 256.656 67.875C255.249 67.8408 254.135 66.6733 254.168 65.2654Z" fill="black"/>
<path d="M259.267 71.2171C259.286 70.3982 259.965 69.7503 260.784 69.7703C261.603 69.7893 262.251 70.4685 262.231 71.2874C262.212 72.1063 261.533 72.7542 260.714 72.7352C259.895 72.7153 259.247 72.036 259.267 71.2171Z" fill="black"/>
<path d="M257.278 75.7705C257.579 75.7781 257.818 76.0279 257.812 76.33C257.804 76.6321 257.553 76.8715 257.252 76.8639C256.949 76.8573 256.711 76.6065 256.718 76.3044C256.725 76.0023 256.976 75.7638 257.278 75.7705Z" fill="black"/>
<path d="M168.026 46.471C167.202 33.7068 156.185 24.0282 143.421 24.8528C130.657 25.6774 120.978 36.6936 121.803 49.4578C122.4 58.6994 128.342 66.3194 136.419 69.5104C136.594 72.2493 136.795 75.3415 136.795 75.3415L157.051 74.0324C157.051 74.0324 156.962 70.7521 156.818 67.828C164.012 63.5083 168.604 55.4219 168.026 46.471Z" fill="#FFE288"/>
<path d="M149.721 74.4105C149.721 74.4105 149.717 74.3127 149.724 74.1236C149.735 73.9232 149.747 73.6439 149.765 73.2838C149.807 72.5466 149.867 71.4579 149.982 70.0586C150.098 68.6592 150.261 66.9473 150.577 64.9751C150.901 63.0086 151.373 60.7685 152.259 58.4078C152.703 57.2288 153.225 56.0176 153.936 54.8272C154.302 54.243 154.771 53.6673 155.424 53.3053C156.075 52.9405 156.917 52.8864 157.623 53.235C157.973 53.4089 158.28 53.7186 158.413 54.1033C158.561 54.4805 158.55 54.9213 158.394 55.2946C158.084 56.0499 157.436 56.6028 156.708 56.9486C155.216 57.5813 153.449 57.5613 151.881 56.9191C150.309 56.2798 148.999 54.9346 148.369 53.274C148.066 52.4484 147.87 51.5345 148.06 50.6168C148.221 49.7067 149.04 48.8479 150.057 48.8755C150.559 48.8793 151.036 49.1928 151.285 49.6136C151.545 50.0326 151.638 50.5427 151.563 51.0272C151.403 52.0057 150.754 52.7724 150.086 53.4288C148.709 54.7265 146.768 55.5236 144.801 55.3393C142.847 55.155 141.029 53.9893 140.117 52.2974C139.642 51.4661 139.475 50.4316 139.779 49.5072C139.933 49.0512 140.259 48.6133 140.727 48.4195C141.187 48.2076 141.723 48.2599 142.158 48.4584C142.597 48.6551 142.966 49.0018 143.199 49.4103C143.441 49.816 143.568 50.2691 143.638 50.7185C143.762 51.62 143.691 52.5282 143.457 53.3823C143.002 55.0942 141.897 56.5857 140.45 57.4692C139.01 58.3612 137.292 58.6833 135.71 58.4353C134.929 58.3147 134.122 58.0582 133.558 57.4663C133.007 56.8887 132.8 55.9311 133.286 55.249C133.528 54.9194 133.911 54.7275 134.292 54.6733C134.674 54.6211 135.061 54.6743 135.409 54.8168C136.117 55.1113 136.576 55.7202 136.925 56.3111C137.587 57.5271 138.132 58.7146 138.68 59.847C140.829 64.3861 142.388 68.1396 143.438 70.7426C143.963 72.0441 144.354 73.0615 144.617 73.7522C144.743 74.0894 144.839 74.3516 144.91 74.5397C144.974 74.7183 145 74.8114 145 74.8114C145 74.8114 144.955 74.725 144.882 74.5502C144.806 74.3649 144.701 74.1065 144.563 73.7731C144.278 73.0786 143.866 72.0735 143.336 70.7844C142.255 68.1956 140.668 64.4564 138.498 59.9344C137.948 58.8115 137.39 57.6098 136.736 56.4223C136.398 55.8504 135.951 55.2832 135.323 55.0286C134.713 54.7759 133.885 54.831 133.477 55.3877C133.076 55.9406 133.244 56.7947 133.735 57.2991C134.237 57.8273 134.994 58.0753 135.749 58.1883C137.271 58.423 138.93 58.1076 140.312 57.2459C141.7 56.3957 142.759 54.9602 143.195 53.312C143.418 52.4912 143.484 51.6143 143.365 50.7593C143.249 49.9195 142.838 49.0579 142.044 48.713C141.663 48.5401 141.215 48.5012 140.839 48.676C140.455 48.8356 140.184 49.1937 140.045 49.5994C139.774 50.4287 139.917 51.3816 140.365 52.1625C141.227 53.7642 142.97 54.8833 144.828 55.0562C146.699 55.2329 148.567 54.47 149.893 53.2227C150.538 52.5919 151.148 51.8499 151.284 50.9854C151.351 50.5627 151.268 50.1181 151.047 49.7618C150.832 49.4037 150.455 49.1586 150.046 49.1538C149.638 49.1396 149.227 49.3191 148.922 49.5984C148.611 49.8758 148.419 50.2644 148.329 50.6767C148.153 51.507 148.332 52.3867 148.623 53.1771C149.224 54.7693 150.479 56.0622 151.982 56.6769C153.478 57.2982 155.197 57.3153 156.602 56.7215C157.284 56.4033 157.894 55.8732 158.167 55.2072C158.46 54.5432 158.148 53.7395 157.515 53.4459C156.897 53.1343 156.12 53.1752 155.534 53.5058C154.93 53.8354 154.481 54.3779 154.121 54.9441C153.422 56.104 152.891 57.3143 152.446 58.479C151.556 60.817 151.072 63.0428 150.733 65.0017C150.405 66.9644 150.225 68.6716 150.093 70.0681C149.976 71.457 149.885 72.54 149.822 73.2876C149.793 73.6467 149.77 73.926 149.754 74.1255C149.737 74.3146 149.721 74.4105 149.721 74.4105Z" fill="#253237"/>
<path d="M155.735 77.8828L138.342 79.0066C137.622 79.0532 136.998 78.5069 136.952 77.7859C136.906 77.0648 137.453 76.4435 138.174 76.397L155.566 75.2731C156.287 75.2266 156.909 75.7738 156.956 76.4948C157.002 77.2149 156.456 77.8362 155.735 77.8828Z" fill="#253237"/>
<path d="M155.808 79.0237L138.416 80.1476C137.696 80.1941 137.148 80.8173 137.195 81.5384C137.242 82.2585 137.864 82.8057 138.585 82.7591L140.494 82.6356L143.339 87.2916C143.664 87.8245 144.258 88.1333 144.88 88.0934L151.095 87.6925C151.724 87.6516 152.278 87.2602 152.529 86.6826L154.68 81.7189L155.977 81.6353C156.698 81.5887 157.245 80.9655 157.198 80.2445C157.152 79.5234 156.529 78.9772 155.808 79.0237Z" fill="#253237"/>
<path d="M129.115 34.198C130.577 32.6628 132.141 31.5494 133.545 30.8226C134.95 30.0911 136.172 29.7016 137.04 29.5572C137.909 29.41 138.412 29.4622 138.466 29.6437C138.594 30.0569 136.882 30.7922 134.623 32.5212C132.372 34.216 129.599 37.1059 128.067 41.0361C126.548 44.971 126.646 48.9752 127.166 51.7445C127.668 54.5451 128.436 56.2418 128.063 56.4612C127.901 56.5581 127.493 56.2579 126.952 55.5635C126.407 54.8709 125.768 53.7594 125.224 52.2717C124.677 50.7878 124.273 48.9116 124.229 46.7921C124.182 44.6774 124.532 42.3186 125.415 40.0063" fill="white"/>
<path d="M144.089 30.2811C142.623 30.3619 141.304 30.0446 141.104 29.2789C141.016 28.8989 141.259 28.4714 141.768 28.117C142.273 27.7636 143.044 27.4929 143.92 27.4406C144.796 27.3893 145.593 27.566 146.136 27.8577C146.683 28.1484 146.977 28.5445 146.933 28.9321" fill="white"/>
<path d="M152.231 87.1149C152.213 87.1595 151.763 86.9876 151.012 86.8242C150.264 86.6589 149.203 86.5363 148.039 86.6427C146.874 86.7548 145.855 87.0721 145.15 87.3733C144.442 87.6735 144.032 87.9262 144.006 87.8863C143.988 87.8616 144.362 87.5462 145.065 87.1909C145.765 86.8346 146.811 86.4746 148.012 86.3596C149.214 86.2494 150.309 86.409 151.062 86.6285C151.818 86.847 152.245 87.0873 152.231 87.1149Z" fill="#455964"/>
<path d="M154.719 81.7739C154.725 81.8528 151.584 82.1188 147.706 82.3696C143.828 82.6204 140.68 82.761 140.676 82.6831C140.67 82.6042 143.81 82.3363 147.688 82.0865C151.566 81.8347 154.715 81.6951 154.719 81.7739Z" fill="#455964"/>
<path d="M153.766 83.9077C153.769 83.9457 153.12 84.0587 152.064 84.1936C151.009 84.3285 149.546 84.4843 147.927 84.6116C146.306 84.7399 144.838 84.814 143.773 84.8463C142.709 84.8776 142.05 84.87 142.048 84.8311C142.046 84.7912 142.702 84.7285 143.762 84.6449C144.908 84.5575 146.33 84.4482 147.904 84.3276C149.476 84.2003 150.898 84.0863 152.044 83.9932C153.103 83.9096 153.761 83.8678 153.766 83.9077Z" fill="#455964"/>
<path d="M86.2653 39.918H84.8745C82.034 39.918 79.7322 37.6162 79.7322 34.7757V10.7074H91.4077V34.7757C91.4077 37.6162 89.1049 39.918 86.2653 39.918Z" fill="#00F9FE"/>
<path d="M79.7322 10.7065L85.5699 0L91.4077 10.7065H79.7322Z" fill="#FFBE9D"/>
<path d="M83.2576 4.2408C83.2576 4.2408 85.0303 6.90745 87.8822 4.2408L85.5699 0.000946045L83.2576 4.2408Z" fill="#001FAB"/>
<path d="M91.5692 33.6034C91.5692 33.7336 88.9111 33.84 85.6346 33.84C82.3561 33.84 79.699 33.7336 79.699 33.6034C79.699 33.4733 82.3561 33.3669 85.6346 33.3669C88.9111 33.3669 91.5692 33.4733 91.5692 33.6034Z" fill="#253237"/>
<path d="M91.4495 31.8136C91.4495 31.9437 88.8447 32.0511 85.6336 32.0511C82.4207 32.0511 79.8177 31.9437 79.8177 31.8136C79.8177 31.6834 82.4207 31.578 85.6336 31.578C88.8447 31.578 91.4495 31.6834 91.4495 31.8136Z" fill="#253237"/>
<path d="M83.1588 10.8785C83.2899 10.8785 83.3944 15.5392 83.3944 21.2867C83.3944 27.0361 83.2899 31.6949 83.1588 31.6949C83.0286 31.6949 82.9222 27.0361 82.9222 21.2867C82.9222 15.5392 83.0286 10.8785 83.1588 10.8785Z" fill="#FAFAFA"/>
<path d="M87.8833 10.8785C88.0134 10.8785 88.1189 15.5392 88.1189 21.2867C88.1189 27.0361 88.0134 31.6949 87.8833 31.6949C87.7522 31.6949 87.6467 27.0361 87.6467 21.2867C87.6467 15.5392 87.7522 10.8785 87.8833 10.8785Z" fill="#FAFAFA"/>
<path d="M129.046 182.247L152.935 178.705L141.513 162.525L135.388 162.887C131.265 163.129 127.632 165.677 125.998 169.469C125.13 171.483 124.889 173.712 125.305 175.866L129.046 182.247Z" fill="#E74F5B"/>
<path d="M129.046 182.248L152.935 178.705L141.513 162.525L135.388 162.887C131.265 163.129 127.632 165.677 125.998 169.469C125.13 171.483 124.889 173.712 125.305 175.866L129.046 182.248Z" fill="#0E74BA"/>
<path d="M231.662 208.719C231.908 209.403 232.177 210.212 232.448 211.181C232.682 212.012 232.764 212.879 232.707 213.739C232.636 214.784 232.485 216.169 232.167 216.901C231.774 217.807 232.687 218.718 233.462 218.266C234.235 217.813 235.379 215.343 235.309 212.163C235.239 208.984 238.482 212.795 239.688 214.162C240.896 215.53 244.828 219.586 245.542 219.548C246.59 219.492 246.723 218.359 245.486 217.022C244.233 215.668 240.822 211.411 241.575 210.809C242.317 210.215 248.366 217.261 248.366 217.261C248.366 217.261 249.415 218.977 250.308 218.309C251.919 217.105 244.938 210.088 244.257 209.438C243.783 208.985 244.578 208.301 245.061 208.814C245.557 209.342 250.93 215.982 252.582 214.772C253.849 213.845 246.893 208.947 246.544 206.952C246.194 204.954 251.442 211.2 252.617 210.264C253.054 209.916 253.332 209.594 249.8 206.442C248.086 204.912 241.57 200.352 241.57 200.352L221.962 144.212L206.821 152.883L231.662 208.719Z" fill="#FFBE9D"/>
<path d="M114.941 102.547L93.0304 76.3997H93.0294C92.7454 75.501 92.4024 74.6241 91.9569 73.7929C90.8615 71.7523 89.0499 69.9758 86.7879 69.4808C85.3981 69.1768 83.8078 69.3231 82.7172 68.4092C82.2298 68.0007 81.9059 67.4193 81.3938 67.0403C80.8837 66.6612 80.0334 66.5871 79.7066 67.1334C79.4739 67.5219 79.6211 68.0197 79.7978 68.4368C80.6101 70.3672 81.9391 72.0724 83.6007 73.3473C81.5468 73.9715 78.6122 74.9158 78.6122 74.9158C78.6122 74.9158 73.981 69.8903 71.6088 69.9064C69.2357 69.9216 73.525 74.3933 73.525 74.3933C73.525 74.3933 69.7259 70.8821 68.5479 71.872C67.3699 72.8609 70.389 75.4677 70.389 75.4677C69.4305 74.9557 68.3798 74.4256 67.3072 74.6042C66.2337 74.7818 65.3113 76.0491 65.8889 76.9706C66.1102 77.3231 66.4893 77.5406 66.8531 77.7439C68.7978 78.8269 70.7415 79.9099 72.6852 80.9939C73.6608 81.5382 74.6859 82.0959 75.8031 82.1301C78.7604 82.2213 81.011 80.3897 83.9693 80.4685C83.9693 80.4685 100.492 115.249 102.163 117.043C103.835 118.836 140.131 121.279 140.131 121.279L161.14 103.178L114.941 102.547Z" fill="#FFBE9D"/>
<path d="M180.75 292L203.126 301.746L191.143 329.646C188.549 328.338 189.396 311.606 189.396 311.606L174.804 305.952L180.75 292Z" fill="#03458F"/>
<path d="M191.893 302.46C192.272 301.984 193.04 301.872 193.532 302.231C194.024 302.591 194.145 303.37 193.773 303.853C193.403 304.336 192.485 304.498 192.037 304.087C191.589 303.674 191.497 302.751 191.973 302.371" fill="white"/>
<path d="M203.126 301.747L200.833 300.853L190.202 327.937C190.202 327.937 190.209 329.411 191.144 329.647L203.126 301.747Z" fill="white"/>
<path d="M189.061 311.999C189.2 312.053 189.553 311.397 190.279 310.916C190.992 310.414 191.733 310.322 191.732 310.174C191.759 310.038 190.858 309.89 189.989 310.489C189.115 311.081 188.923 311.975 189.061 311.999Z" fill="#253237"/>
<path d="M189.014 315.443C189.133 315.532 189.619 315.041 190.393 314.826C191.162 314.588 191.835 314.739 191.887 314.601C191.963 314.481 191.207 314.044 190.248 314.331C189.287 314.608 188.886 315.385 189.014 315.443Z" fill="#253237"/>
<path d="M191.803 318.61C191.886 318.499 191.285 318.017 190.388 318.045C189.492 318.069 188.922 318.585 189.011 318.691C189.09 318.817 189.667 318.575 190.404 318.561C191.14 318.532 191.732 318.74 191.803 318.61Z" fill="#253237"/>
<path d="M185.879 310.341C186.027 310.337 186.107 309.631 186.49 308.884C186.857 308.128 187.374 307.64 187.288 307.519C187.223 307.398 186.467 307.766 186.028 308.654C185.582 309.536 185.742 310.361 185.879 310.341Z" fill="#253237"/>
<path d="M182.853 308.253C182.909 308.279 183.224 307.777 183.446 306.853C183.556 306.393 183.632 305.828 183.624 305.199C183.621 304.884 183.595 304.553 183.544 304.213C183.516 304.049 183.499 303.861 183.396 303.65C183.318 303.439 182.994 303.198 182.698 303.277C182.423 303.327 182.221 303.54 182.13 303.739C182.036 303.942 182.005 304.127 181.978 304.295C181.92 304.638 181.897 304.973 181.903 305.291C181.916 305.928 182.037 306.493 182.196 306.943C182.517 307.848 182.931 308.286 182.977 308.252C183.048 308.209 182.757 307.711 182.545 306.84C182.44 306.406 182.366 305.878 182.378 305.293C182.386 305.001 182.416 304.694 182.476 304.384C182.524 304.055 182.631 303.803 182.794 303.784C182.857 303.778 182.878 303.782 182.937 303.88C182.991 303.979 183.017 304.133 183.045 304.295C183.1 304.611 183.133 304.918 183.149 305.214C183.183 305.804 183.147 306.34 183.087 306.787C182.967 307.681 182.778 308.224 182.853 308.253Z" fill="#253237"/>
<path d="M183.125 308.161C183.166 308.122 182.794 307.642 181.933 307.213C181.506 307.002 180.956 306.819 180.322 306.747C180.005 306.712 179.668 306.704 179.32 306.738C178.974 306.782 178.519 306.824 178.232 307.327C178.103 307.598 178.221 307.918 178.371 308.076C178.52 308.25 178.674 308.338 178.822 308.441C179.126 308.632 179.448 308.762 179.763 308.846C180.394 309.012 180.993 308.982 181.462 308.868C182.42 308.634 182.826 308.136 182.785 308.104C182.736 308.03 182.27 308.392 181.396 308.51C180.965 308.569 180.434 308.558 179.893 308.388C179.622 308.304 179.349 308.183 179.097 308.016C178.818 307.845 178.627 307.63 178.705 307.532C178.762 307.392 179.087 307.253 179.373 307.24C179.685 307.205 179.989 307.201 180.278 307.22C180.857 307.262 181.373 307.392 181.789 307.548C182.625 307.862 183.071 308.226 183.125 308.161Z" fill="#253237"/>
<path d="M163.518 330.33L172.771 349.718L175.67 367.163C175.879 368.422 177.11 369.239 178.35 368.945C179.045 368.781 179.613 368.298 179.881 367.636C181.583 363.423 187.763 347.897 187.006 346.516C186.13 344.916 178.601 325.416 178.601 325.416L163.518 330.33Z" fill="#03458F"/>
<path d="M178.35 368.946L186.412 345.194L186.785 346.024C187.108 346.741 187.169 347.55 186.949 348.305C186.362 350.327 184.62 355.874 179.94 367.61C179.668 368.292 179.069 368.795 178.35 368.946Z" fill="white"/>
<path d="M179.548 340.68C179.21 341.241 179.382 342.055 179.928 342.416C180.475 342.777 181.305 342.608 181.653 342.053C182.001 341.499 181.823 340.515 181.24 340.218C180.657 339.919 179.693 340.172 179.489 340.793" fill="white"/>
<path d="M178.98 358.371C178.893 358.475 177.989 357.647 176.576 357.619C175.163 357.548 174.206 358.312 174.127 358.201C174.088 358.161 174.267 357.897 174.696 357.626C175.12 357.356 175.813 357.122 176.592 357.147C177.373 357.176 178.047 357.457 178.451 357.757C178.86 358.058 179.022 358.333 178.98 358.371Z" fill="#253237"/>
<path d="M178.764 361.622C178.709 361.749 177.794 361.395 176.649 361.56C175.502 361.7 174.711 362.281 174.626 362.173C174.523 362.099 175.28 361.259 176.588 361.092C177.893 360.911 178.843 361.523 178.764 361.622Z" fill="#253237"/>
<path d="M180.067 353.839C180.016 353.974 178.611 353.422 176.81 353.522C175.007 353.595 173.662 354.28 173.598 354.151C173.519 354.061 174.854 353.135 176.787 353.051C178.719 352.949 180.136 353.741 180.067 353.839Z" fill="#253237"/>
<path d="M177.746 347.71C177.746 347.851 176.459 347.886 175.029 348.468C173.589 349.031 172.632 349.89 172.536 349.788C172.438 349.716 173.307 348.638 174.854 348.029C176.393 347.408 177.766 347.591 177.746 347.71Z" fill="#253237"/>
<path d="M175.172 341.95C175.163 342.09 173.78 341.928 172.323 342.664C170.85 343.368 170.135 344.563 170.018 344.484C169.967 344.458 170.072 344.115 170.406 343.652C170.737 343.189 171.327 342.63 172.115 342.241C172.905 341.853 173.708 341.728 174.277 341.748C174.848 341.767 175.183 341.893 175.172 341.95Z" fill="#253237"/>
<path d="M171.865 341.552C171.841 341.565 171.678 341.321 171.505 340.824C171.335 340.331 171.159 339.57 171.222 338.618C171.27 338.159 171.28 337.592 171.711 337.088C171.924 336.835 172.352 336.703 172.701 336.859C173.045 337.007 173.264 337.296 173.409 337.604C173.948 338.857 173.421 340.541 172.102 341.347C170.767 342.133 169.134 341.903 168.095 341.079C167.848 340.856 167.61 340.552 167.613 340.152C167.613 339.751 167.952 339.439 168.253 339.361C168.875 339.187 169.392 339.356 169.846 339.452C170.766 339.691 171.44 340.075 171.868 340.374C172.298 340.675 172.491 340.896 172.474 340.916C172.428 340.998 171.546 340.177 169.77 339.778C169.332 339.7 168.816 339.583 168.38 339.732C168.166 339.804 168.027 339.964 168.029 340.161C168.025 340.353 168.176 340.581 168.381 340.751C169.246 341.418 170.738 341.625 171.858 340.944C172.976 340.275 173.436 338.794 173.013 337.782C172.907 337.539 172.733 337.327 172.541 337.241C172.351 337.157 172.14 337.205 171.992 337.36C171.681 337.685 171.61 338.211 171.554 338.647C171.375 340.458 171.962 341.532 171.865 341.552Z" fill="#253237"/>
<path d="M194.699 294.37L169.329 277.292L177.725 194.839L153.693 180.805L131.716 175.713C131.716 175.713 122.537 194.807 118.456 207.029C109.776 233.027 103.683 242.343 105.073 261.187C105.514 267.151 127.539 282.071 141.448 290.359C141.639 292.262 141.882 293.924 142.186 295.296C146.939 316.782 161.445 345.356 161.445 345.356L183.494 335.106L176.38 310.741L183.789 315.063L194.699 294.37ZM140.164 241.203L143.124 227.986C142.498 236.39 141.926 245.157 141.517 253.564C140.092 249.679 139.606 245.36 140.164 241.203Z" fill="#253237"/>
<path d="M161.446 345.355C161.438 345.359 161.381 345.24 161.275 345.007C161.162 344.753 161.011 344.408 160.819 343.967C160.419 343.026 159.846 341.676 159.113 339.947C157.649 336.448 155.553 331.375 153.029 325.08C150.52 318.78 147.532 311.277 144.522 302.823C143.772 300.71 143.036 298.531 142.347 296.281C142.041 295.142 141.657 294.019 141.457 292.813C141.399 292.516 141.331 292.217 141.282 291.918L141.176 291.019C141.11 290.418 141.041 289.813 140.974 289.206C140.717 286.778 140.502 284.301 140.343 281.784C140.263 280.525 140.196 279.256 140.146 277.977C140.1 276.704 140.043 275.404 140.116 274.11C140.489 263.749 141.36 253.929 142.076 244.99C142.823 236.059 143.495 228.014 144.061 221.25C144.608 214.492 144.991 209.019 145.207 205.235C145.326 203.342 145.391 201.873 145.435 200.875C145.462 200.395 145.482 200.018 145.497 199.742C145.513 199.485 145.526 199.354 145.534 199.355C145.543 199.355 145.546 199.486 145.545 199.743C145.543 200.02 145.537 200.397 145.531 200.878C145.517 201.877 145.481 203.35 145.391 205.244C145.231 209.034 144.898 214.513 144.394 221.277C143.856 228.043 143.218 236.09 142.509 245.025C141.818 253.96 140.96 263.792 140.588 274.119C140.514 275.409 140.571 276.681 140.617 277.96C140.666 279.233 140.733 280.499 140.812 281.755C140.968 284.264 141.18 286.735 141.435 289.158C141.501 289.763 141.567 290.365 141.633 290.966L141.737 291.863C141.785 292.157 141.851 292.446 141.907 292.735C142.096 293.896 142.479 295.025 142.779 296.152C143.46 298.39 144.189 300.566 144.932 302.679C147.915 311.129 150.87 318.644 153.339 324.957C155.842 331.24 157.871 336.331 159.284 339.876C159.981 341.619 160.526 342.981 160.906 343.931C161.081 344.379 161.218 344.73 161.319 344.988C161.41 345.228 161.453 345.352 161.446 345.355Z" fill="#455964"/>
<path d="M144.489 196.569C144.469 196.594 144.266 196.43 143.91 196.101C143.58 195.753 143.178 195.168 142.837 194.376C142.154 192.789 141.808 190.419 141.756 187.836C141.708 185.243 141.9 182.909 142.07 181.228C142.246 179.548 142.388 178.513 142.451 178.518C142.518 178.522 142.493 179.569 142.404 181.253C142.319 182.937 142.181 185.263 142.228 187.825C142.28 190.38 142.569 192.698 143.149 194.254C143.438 195.03 143.776 195.611 144.05 195.982C144.349 196.332 144.509 196.544 144.489 196.569Z" fill="#455964"/>
<path d="M135 176.946C135.048 176.935 135.277 177.81 135.189 179.252C135.11 180.682 134.623 182.693 133.37 184.532C132.117 186.372 130.422 187.56 129.122 188.157C127.811 188.767 126.913 188.873 126.905 188.825C126.883 188.747 127.739 188.525 128.97 187.859C130.195 187.205 131.783 186.024 132.981 184.266C134.178 182.51 134.696 180.601 134.857 179.221C135.026 177.831 134.92 176.953 135 176.946Z" fill="#455964"/>
<path d="M174.424 224.883C174.433 224.884 174.431 224.969 174.42 225.135C174.404 225.326 174.383 225.568 174.358 225.867C174.29 226.546 174.196 227.488 174.076 228.682C173.805 231.161 173.42 234.687 172.948 239.027C171.955 247.788 170.592 259.832 169.086 273.136C168.504 279.798 169.085 286.207 170.336 291.855C170.953 294.686 171.771 297.314 172.632 299.746C173.486 302.18 174.281 304.451 175.008 306.528C176.438 310.654 177.599 314.004 178.416 316.359C178.799 317.497 179.102 318.394 179.32 319.04C179.412 319.327 179.485 319.558 179.545 319.742C179.592 319.902 179.613 319.983 179.605 319.986C179.597 319.988 179.561 319.911 179.499 319.758C179.429 319.579 179.341 319.353 179.231 319.072C178.993 318.434 178.662 317.547 178.243 316.421C177.392 314.077 176.183 310.744 174.693 306.64C173.949 304.569 173.136 302.305 172.264 299.876C171.384 297.445 170.544 294.796 169.911 291.95C168.629 286.268 168.029 279.808 168.616 273.096C170.1 259.755 171.574 247.722 172.617 238.993C173.151 234.659 173.587 231.14 173.892 228.665C174.049 227.474 174.174 226.535 174.263 225.858C174.308 225.561 174.343 225.321 174.371 225.13C174.399 224.966 174.416 224.882 174.424 224.883Z" fill="#455964"/>
<path d="M131.717 175.553L135.608 165.608L144.487 178.85L132.647 175.89" fill="#FFBE9D"/>
<path d="M224.649 145.66L214.108 122.032C212.848 118.234 210.484 117.644 208.504 115.439L182.102 100.549C162.86 92.6665 152.383 119.099 152.383 119.099L134.894 158.991C114.327 165.81 128.888 181.605 128.888 181.605C128.888 181.605 123.295 171.88 128.796 168.372C134.557 164.698 140.945 174.377 147.081 183.57C154.325 194.423 177.865 201.473 177.865 201.473C180.618 198.564 179.85 188.408 182.006 182.959C182.69 181.231 198.991 143.471 198.991 143.471L205.31 158.782C205.31 158.782 213.411 149.285 217.336 147.775C221.262 146.265 224.649 145.66 224.649 145.66Z" fill="#03458F"/>
<path d="M177.865 162.452C177.881 162.475 177.604 162.686 177.066 163.009C176.529 163.334 175.717 163.749 174.664 164.148C172.576 164.952 169.414 165.577 165.988 165.048C162.559 164.519 159.734 162.97 157.985 161.574C157.101 160.877 156.452 160.235 156.037 159.764C155.623 159.294 155.423 159.01 155.444 158.991C155.51 158.929 156.397 160.003 158.185 161.307C159.954 162.61 162.726 164.067 166.059 164.582C169.39 165.095 172.473 164.544 174.553 163.834C176.651 163.129 177.822 162.373 177.865 162.452Z" fill="#253237"/>
<path d="M134.11 124.984L150.404 126.522L176.471 98.9698L161.14 98.4435L133.84 101.138C133.84 101.138 136.258 112.516 134.11 124.984Z" fill="#03458F"/>
<path d="M156.741 110.467C156.755 110.474 156.686 110.648 156.542 110.972C156.37 111.34 156.154 111.806 155.888 112.379C155.29 113.655 154.47 115.405 153.469 117.541C151.443 121.907 148.755 127.988 145.841 134.732C142.927 141.479 140.276 147.583 138.272 151.964C137.272 154.155 136.446 155.922 135.853 157.132C135.571 157.697 135.343 158.156 135.162 158.52C134.999 158.835 134.907 158.997 134.892 158.991C134.877 158.984 134.941 158.807 135.075 158.48C135.235 158.106 135.437 157.634 135.685 157.054C136.25 155.763 137.023 153.991 137.967 151.829C139.894 147.354 142.512 141.269 145.408 134.545C148.323 127.799 151.062 121.734 153.167 117.399C154.217 115.231 155.091 113.488 155.723 112.297C156.021 111.741 156.264 111.287 156.456 110.93C156.629 110.62 156.726 110.46 156.741 110.467Z" fill="#253137"/>
<path d="M206.473 118.48C206.518 118.56 205.507 119.087 204.128 120.26C203.434 120.84 202.681 121.615 201.927 122.537C201.193 123.478 200.47 124.576 199.86 125.811C199.268 127.055 198.855 128.304 198.572 129.462C198.314 130.627 198.173 131.697 198.148 132.601C198.081 134.41 198.293 135.53 198.201 135.543C198.17 135.55 198.1 135.275 198.003 134.769C197.948 134.516 197.898 134.204 197.876 133.839C197.851 133.474 197.795 133.057 197.815 132.595C197.796 131.67 197.905 130.569 198.146 129.367C198.413 128.173 198.827 126.884 199.437 125.605C200.062 124.336 200.818 123.212 201.59 122.263C202.384 121.33 203.179 120.561 203.917 120.003C204.268 119.701 204.63 119.486 204.932 119.281C205.232 119.071 205.509 118.919 205.739 118.805C206.198 118.567 206.457 118.451 206.473 118.48Z" fill="#253137"/>
<path d="M211.025 80.6395L195.739 109.213C193.243 113.878 187.565 115.819 182.736 113.658C177.419 111.278 175.22 104.898 177.942 99.7488C179.383 97.0232 180.58 94.7983 180.58 94.7983C180.58 94.7983 173.934 90.491 177.042 83.31C179.814 76.9032 189.995 58.8199 192.157 54.9962L205.039 60.7617C212.275 64.5209 214.983 73.5107 211.025 80.6395Z" fill="#FFBE9D"/>
<path d="M180.613 94.69C180.613 94.69 184.962 97.0764 191.108 96.21C191.108 96.21 186.607 100.365 179.768 96.533L180.613 94.69Z" fill="#EB996E"/>
<path d="M185.523 71.8444C185.264 72.3745 185.497 73.0319 186.046 73.3141C186.593 73.5943 187.247 73.3948 187.508 72.8647C187.768 72.3346 187.533 71.6763 186.986 71.3951C186.438 71.1129 185.783 71.3143 185.523 71.8444Z" fill="#FFBD9D"/>
<path d="M185.582 70.9343C185.649 71.1243 186.676 70.8992 187.773 71.3922C188.875 71.871 189.429 72.7954 189.607 72.7146C189.693 72.6814 189.671 72.3831 189.434 71.9708C189.203 71.5613 188.725 71.0521 188.04 70.7491C187.354 70.447 186.668 70.4394 186.222 70.5496C185.767 70.6569 185.546 70.8469 185.582 70.9343Z" fill="#FFBD9D"/>
<path d="M195.791 76.8956C195.531 77.4257 195.764 78.0831 196.313 78.3643C196.861 78.6455 197.515 78.445 197.776 77.9159C198.035 77.3858 197.801 76.7274 197.254 76.4462C196.706 76.1641 196.05 76.3655 195.791 76.8956Z" fill="#FFBD9D"/>
<path d="M196.277 75.9674C196.344 76.1574 197.374 75.9323 198.47 76.4263C199.571 76.9041 200.124 77.8285 200.303 77.7477C200.388 77.7145 200.369 77.4171 200.13 77.0039C199.9 76.5954 199.422 76.0852 198.736 75.7822C198.05 75.4801 197.363 75.4725 196.918 75.5827C196.464 75.691 196.242 75.88 196.277 75.9674Z" fill="#FFBD9D"/>
<path d="M188.653 82.3239C188.685 82.264 188.055 81.8413 187.013 81.2048C186.746 81.0509 186.505 80.8761 186.544 80.6633C186.568 80.4315 186.82 80.1826 187.102 79.9166C187.669 79.3561 188.263 78.769 188.886 78.1534C191.397 75.6302 193.348 73.505 193.247 73.4043C193.144 73.3046 191.025 75.2682 188.514 77.7914C187.902 78.4175 187.318 79.0122 186.76 79.5831C186.511 79.8539 186.167 80.1341 186.122 80.6177C186.104 80.8609 186.242 81.105 186.399 81.2342C186.555 81.3691 186.712 81.4432 186.847 81.5126C187.933 82.0702 188.62 82.3847 188.653 82.3239Z" fill="#FFBD9D"/>
<path d="M191.542 84.5279C191.368 84.4376 190.833 85.628 189.434 86.0165C188.037 86.4098 186.827 85.7078 186.743 85.8702C186.693 85.9377 186.923 86.2284 187.452 86.483C187.97 86.7357 188.813 86.9105 189.668 86.673C190.522 86.4326 191.099 85.8598 191.359 85.3895C191.627 84.9117 191.626 84.5573 191.542 84.5279Z" fill="#FFBD9D"/>
<path d="M197.918 71.5395C197.893 71.8862 199.051 72.2349 200.27 72.9664C201.502 73.6741 202.372 74.5158 202.663 74.3239C202.797 74.2308 202.741 73.8689 202.45 73.392C202.164 72.917 201.622 72.346 200.888 71.9138C200.153 71.4834 199.39 71.2896 198.836 71.2706C198.278 71.2497 197.935 71.377 197.918 71.5395Z" fill="#FFBD9D"/>
<path d="M187.406 67.939C187.488 68.2753 188.359 68.3541 189.274 68.7493C190.202 69.1113 190.878 69.668 191.172 69.4865C191.306 69.3944 191.296 69.0904 191.067 68.7037C190.84 68.3209 190.371 67.8801 189.738 67.6198C189.104 67.3604 188.462 67.3443 188.031 67.4573C187.595 67.5694 187.376 67.7794 187.406 67.939Z" fill="#FFBD9D"/>
<path d="M206.218 84.9221C206.363 84.924 211.776 85.6669 209.434 90.4796C207.093 95.2923 202.744 91.9493 202.803 91.8077C202.862 91.6652 206.218 84.9221 206.218 84.9221Z" fill="#FFBE9D"/>
<path d="M205.16 90.6991C205.188 90.6943 205.215 90.7979 205.325 90.9328C205.432 91.0629 205.649 91.2225 205.945 91.251C206.544 91.3118 207.365 90.7124 207.81 89.8564C208.036 89.4251 208.147 88.9615 208.159 88.5416C208.185 88.1179 208.075 87.7607 207.842 87.5916C207.616 87.4083 207.359 87.4738 207.236 87.5812C207.105 87.6838 207.089 87.7949 207.06 87.7911C207.04 87.7959 206.996 87.66 207.131 87.4795C207.198 87.395 207.311 87.3085 207.468 87.2705C207.63 87.2335 207.822 87.2677 207.99 87.3741C208.348 87.5802 208.518 88.0837 208.505 88.5454C208.51 89.0195 208.394 89.5439 208.142 90.0284C207.638 90.9831 206.701 91.65 205.908 91.5123C205.527 91.4353 205.294 91.195 205.203 91.0107C205.111 90.8197 205.14 90.6991 205.16 90.6991Z" fill="#EB996E"/>
<path d="M209.009 85.9728C208.345 85.4589 206.749 85.57 206.12 86.1258C205.49 86.6806 205.068 87.4387 204.438 87.9954C203.809 88.5511 202.812 88.8627 202.144 88.3516C201.686 88.0001 201.533 87.3541 201.626 86.7832C201.718 86.2113 202.015 85.6954 202.316 85.2014C203.625 83.0497 205.115 81.0034 206.235 78.7481C207.354 76.4928 208.094 73.9601 207.764 71.4644C207.434 68.9678 205.862 66.5377 203.489 65.6979C201.916 65.1412 200.171 65.3094 198.57 64.8458C196.671 64.2967 195.062 62.8194 194.354 60.9736C194.264 60.738 193.726 59.8934 193.726 59.8934C193.779 59.7756 194.346 58.8057 194.914 58.6138C199.142 57.1859 204.879 58.8256 208.384 61.5882C211.89 64.3499 214.344 68.7959 214.388 73.259C214.431 77.7221 211.623 82.6459 209.009 85.9728Z" fill="#253237"/>
<path d="M209.055 85.4902C210.391 83.2159 212.561 81.5696 214.218 79.5166C215.874 77.4637 217.012 74.5709 215.833 72.2111C215.43 71.4055 214.785 70.7291 214.449 69.8931C214.11 69.0524 214.109 68.1223 213.98 67.2255C213.578 64.4544 211.826 61.9112 209.38 60.547C207.689 59.6037 205.737 59.218 204.023 58.3164C201.308 56.8895 199.323 54.2447 196.471 53.1171C195.525 52.7428 194.417 52.5613 193.513 53.0278C192.607 53.4942 192.122 54.8062 192.781 55.5814C192.664 54.6713 191.485 54.1706 190.649 54.5497C189.812 54.9278 189.384 55.9234 189.441 56.8392C189.497 57.755 189.952 58.5995 190.477 59.3519C192.209 61.8324 194.857 63.6554 197.793 64.3898L204.349 63.8777L209.725 67.862L213.705 74.1957L206.489 83.5703L209.055 85.4902Z" fill="#253237"/>
</svg>
