<svg width="34" height="34" viewBox="0 0 34 34" fill="none" xmlns="http://www.w3.org/2000/svg">
<path d="M28 10.1308C27.1904 10.4908 26.3214 10.7383 25.4084 10.8463C26.3412 10.2838 27.054 9.39277 27.3928 8.33302C26.5039 8.86282 25.5341 9.23554 24.524 9.43552C24.0991 8.98006 23.588 8.61789 23.0218 8.37109C22.4555 8.12429 21.8461 7.99803 21.2306 8.00002C18.738 8.00002 16.7184 10.0363 16.7184 12.545C16.7184 12.9005 16.758 13.247 16.835 13.58C15.0471 13.4932 13.2966 13.0262 11.695 12.2087C10.0935 11.3913 8.67614 10.2415 7.5334 8.83252C7.13204 9.5235 6.92072 10.3126 6.9218 11.1163C6.9218 12.6913 7.7204 14.0863 8.9304 14.8985C8.21418 14.8755 7.51329 14.6805 6.8844 14.3293V14.3855C6.8912 15.4418 7.25576 16.463 7.91602 17.2753C8.57627 18.0876 9.49141 18.6407 10.5056 18.8405C9.83979 19.0206 9.14312 19.0467 8.4662 18.917C8.76128 19.8257 9.32568 20.6179 10.0811 21.1836C10.8364 21.7493 11.7453 22.0604 12.6814 22.0737C11.0753 23.3395 9.10341 24.0233 7.0758 24.0177C6.7128 24.0177 6.3542 23.9952 6 23.9547C8.06904 25.2941 10.4681 26.0035 12.9168 26C21.2196 26 25.7582 19.0745 25.7582 13.067L25.7428 12.4775C26.6278 11.8414 27.3926 11.0463 28 10.1308Z" fill="#03458F"/>
<path d="M6.8 3.4C5.89826 3.4 5.03346 3.75821 4.39584 4.39584C3.75821 5.03346 3.4 5.89826 3.4 6.8V27.2C3.4 28.1017 3.75821 28.9665 4.39584 29.6042C5.03346 30.2418 5.89826 30.6 6.8 30.6H27.2C28.1017 30.6 28.9665 30.2418 29.6042 29.6042C30.2418 28.9665 30.6 28.1017 30.6 27.2V6.8C30.6 5.89826 30.2418 5.03346 29.6042 4.39584C28.9665 3.75821 28.1017 3.4 27.2 3.4H6.8ZM6.8 0H27.2C29.0035 0 30.7331 0.716427 32.0083 1.99167C33.2836 3.26692 34 4.99653 34 6.8V27.2C34 29.0035 33.2836 30.7331 32.0083 32.0083C30.7331 33.2836 29.0035 34 27.2 34H6.8C4.99653 34 3.26692 33.2836 1.99167 32.0083C0.716427 30.7331 0 29.0035 0 27.2V6.8C0 4.99653 0.716427 3.26692 1.99167 1.99167C3.26692 0.716427 4.99653 0 6.8 0V0Z" fill="#03458F"/>
</svg>
