<svg width="559" height="559" viewBox="0 0 559 559" fill="none" xmlns="http://www.w3.org/2000/svg">
<path d="M360.485 55.6693L388.163 110.395" stroke="#03458F" stroke-opacity="0.5" stroke-width="2"/>
<path d="M214.775 50.918L279.413 61.4027" stroke="#03458F" stroke-opacity="0.5" stroke-width="2"/>
<path d="M387.827 110.221L279.762 61.4027" stroke="#03458F" stroke-opacity="0.5" stroke-width="2"/>
<path d="M360.848 55.872L279.5 61.272" stroke="#03458F" stroke-opacity="0.5" stroke-width="2"/>
<path d="M387.799 109.857L374.398 216.934" stroke="#03458F" stroke-opacity="0.5" stroke-width="2"/>
<path d="M279.849 60.4419L272.516 138.266L388.002 110.326" stroke="#03458F" stroke-opacity="0.5" stroke-width="2"/>
<path d="M161.278 113.896L281.946 126.124L425.874 119.291" stroke="#03458F" stroke-opacity="0.5" stroke-width="2"/>
<path d="M90.4042 136.634L165.213 105.567" stroke="#03458F" stroke-opacity="0.5" stroke-width="2"/>
<path d="M214.991 51.2534L165.213 104.868" stroke="#03458F" stroke-opacity="0.5" stroke-width="2"/>
<path d="M280.199 61.49L165.213 105.218" stroke="#03458F" stroke-opacity="0.5" stroke-width="2"/>
<path d="M272.736 138.353L165.213 105.567" stroke="#03458F" stroke-opacity="0.5" stroke-width="2"/>
<path d="M387.435 110.198L471.409 146.844" stroke="#03458F" stroke-opacity="0.5" stroke-width="2"/>
<path d="M281.946 125.426L464.786 208.055" stroke="#03458F" stroke-opacity="0.5" stroke-width="2"/>
<path d="M473.973 146.319L464.742 206.657" stroke="#03458F" stroke-opacity="0.5" stroke-width="2"/>
<path d="M388.145 109.718L465.398 207.88" stroke="#03458F" stroke-opacity="0.5" stroke-width="2"/>
<path d="M272.443 138.003L375.187 216.906" stroke="#03458F" stroke-opacity="0.5" stroke-width="2"/>
<path d="M464.431 206.886L376.235 216.906" stroke="#03458F" stroke-opacity="0.5" stroke-width="2"/>
<path d="M281.946 126.474L265.367 245.033" stroke="#03458F" stroke-opacity="0.5" stroke-width="2"/>
<path d="M272.226 137.493L265.389 245.099" stroke="#03458F" stroke-opacity="0.5" stroke-width="2"/>
<path d="M375.39 216.864L265.389 245.055" stroke="#03458F" stroke-opacity="0.5" stroke-width="2"/>
<path d="M86.0577 230.56L281.771 235.828" stroke="#03458F" stroke-opacity="0.5" stroke-width="2"/>
<path d="M381.251 207.696L281.946 235.129" stroke="#03458F" stroke-opacity="0.5" stroke-width="2"/>
<path d="M265.973 244.884L162.558 212.714" stroke="#03458F" stroke-opacity="0.5" stroke-width="2"/>
<path d="M165.213 105.19L162.208 213.412" stroke="#03458F" stroke-opacity="0.5" stroke-width="2"/>
<path d="M272.708 137.248L161.509 213.063" stroke="#03458F" stroke-opacity="0.5" stroke-width="2"/>
<path d="M90.516 137.039L85.1778 195.566" stroke="#03458F" stroke-opacity="0.5" stroke-width="2"/>
<path d="M162.208 213.035L84.8284 196.265" stroke="#03458F" stroke-opacity="0.5" stroke-width="2"/>
<path d="M164.863 105.274L84.8284 195.566" stroke="#03458F" stroke-opacity="0.5" stroke-width="2"/>
<path d="M281.946 125.775L85.8766 195.916" stroke="#03458F" stroke-opacity="0.5" stroke-width="2"/>
<path d="M281.946 235.479L510.921 285.374" stroke="#03458F" stroke-opacity="0.5" stroke-width="2"/>
<path d="M463.928 206.934L511.27 283.977" stroke="#03458F" stroke-opacity="0.5" stroke-width="2"/>
<path d="M277.753 370.337L496.481 371.513L495.363 371.093" stroke="#03458F" stroke-opacity="0.5" stroke-width="2"/>
<path d="M381.169 423.582L444.95 322.431L375.187 216.501" stroke="#03458F" stroke-opacity="0.5" stroke-width="2"/>
<path d="M464.459 206.243L444.601 322.082" stroke="#03458F" stroke-opacity="0.5" stroke-width="2"/>
<path d="M512.952 284.95L444.601 322.082" stroke="#03458F" stroke-opacity="0.5" stroke-width="2"/>
<path d="M281.596 235.479L329.405 340.571L265.651 245.205" stroke="#03458F" stroke-opacity="0.5" stroke-width="2"/>
<path d="M374.572 216.878L328.008 340.571L444.922 321.383" stroke="#03458F" stroke-opacity="0.5" stroke-width="2"/>
<path d="M381.169 423.261L328.008 340.571" stroke="#03458F" stroke-opacity="0.5" stroke-width="2"/>
<path d="M330.892 340.744L199.022 338.388L265.192 244.929" stroke="#03458F" stroke-opacity="0.5" stroke-width="2"/>
<path d="M162.664 213.506L199.022 338.388" stroke="#03458F" stroke-opacity="0.5" stroke-width="2"/>
<path d="M85.8766 196.964L92.2214 313.872" stroke="#03458F" stroke-opacity="0.5" stroke-width="2"/>
<path d="M161.887 212.769L91.872 314.221" stroke="#03458F" stroke-opacity="0.5" stroke-width="2"/>
<path d="M281.946 234.081L91.872 313.522L200.248 338.502" stroke="#03458F" stroke-opacity="0.5" stroke-width="2"/>
<path d="M92.0127 313.824L41.9418 274.523" stroke="#03458F" stroke-opacity="0.5" stroke-width="2"/>
<path d="M85.9604 195.566L41.981 275.308" stroke="#03458F" stroke-opacity="0.5" stroke-width="2"/>
<path d="M459.691 419.496L379.891 423.041" stroke="#03458F" stroke-opacity="0.5" stroke-width="2"/>
<path d="M443.847 320.916L459.691 418.797" stroke="#03458F" stroke-opacity="0.5" stroke-width="2"/>
<path d="M510.561 285.469L460.39 419.496" stroke="#03458F" stroke-opacity="0.5" stroke-width="2"/>
<path d="M278.801 371.735L71.7755 362.609" stroke="#03458F" stroke-opacity="0.5" stroke-width="2"/>
<path d="M299.106 325.618L279.151 371.386" stroke="#03458F" stroke-opacity="0.5" stroke-width="2"/>
<path d="M381.979 424.225L278.801 371.735" stroke="#03458F" stroke-opacity="0.5" stroke-width="2"/>
<path d="M92.4589 313.515L152.412 419.991" stroke="#03458F" stroke-opacity="0.5" stroke-width="2"/>
<path d="M280.199 371.036L152.733 419.935" stroke="#03458F" stroke-opacity="0.5" stroke-width="2"/>
<path d="M199.661 338.53L152.705 420.312" stroke="#03458F" stroke-opacity="0.5" stroke-width="2"/>
<path d="M88.0567 412.249L152.356 419.935" stroke="#03458F" stroke-opacity="0.5" stroke-width="2"/>
<path d="M91.5506 314.396L86.3098 412.249" stroke="#03458F" stroke-opacity="0.5" stroke-width="2"/>
<path d="M42.3304 274.665L86.6033 412.808" stroke="#03458F" stroke-opacity="0.5" stroke-width="2"/>
<path d="M342.975 499.327L381.434 423.61" stroke="#03458F" stroke-opacity="0.5" stroke-width="2"/>
<path d="M461.388 419.165L343.427 498.989" stroke="#03458F" stroke-opacity="0.5" stroke-width="2"/>
<path d="M278.979 515.153L403.863 472.867" stroke="#03458F" stroke-opacity="0.5" stroke-width="2"/>
<path d="M202.227 498.335L87.0005 412.273" stroke="#03458F" stroke-opacity="0.5" stroke-width="2"/>
<path d="M152.705 420.606L201.415 497.035" stroke="#03458F" stroke-opacity="0.5" stroke-width="2"/>
<path d="M344.372 498.628L201.939 497.559" stroke="#03458F" stroke-opacity="0.5" stroke-width="2"/>
<path d="M344.372 498.628L201.939 497.559L344.372 498.628Z" fill="#03458F" fill-opacity="0.51"/>
<path d="M381.518 422.241L266.797 444.615L151.643 419.641" stroke="#03458F" stroke-opacity="0.5" stroke-width="2"/>
<path d="M198.771 337.625L266.215 444.461" stroke="#03458F" stroke-opacity="0.5" stroke-width="2"/>
<path d="M341.288 498.552L264.811 443.562" stroke="#03458F" stroke-opacity="0.5" stroke-width="2"/>
<path d="M265.335 444.435L200.836 497.338" stroke="#03458F" stroke-opacity="0.5" stroke-width="2"/>
<path d="M328.337 339.343L265.335 444.522" stroke="#03458F" stroke-opacity="0.5" stroke-width="2"/>
<path d="M281.946 229.889C284.84 229.889 287.186 232.235 287.186 235.129C287.186 238.024 284.84 240.37 281.946 240.37C279.051 240.37 276.705 238.024 276.705 235.129C276.705 232.235 279.051 229.889 281.946 229.889Z" fill="#03458F" fill-opacity="0.51"/>
<path d="M199.49 332.472C202.384 332.472 204.731 334.818 204.731 337.713C204.731 340.607 202.384 342.953 199.49 342.953C196.596 342.953 194.25 340.607 194.25 337.713C194.25 334.818 196.596 332.472 199.49 332.472Z" fill="#03458F" fill-opacity="0.51"/>
<path d="M279.849 56.2494C282.744 56.2494 285.09 58.5958 285.09 61.49C285.09 64.3842 282.744 66.7306 279.849 66.7306C276.955 66.7306 274.609 64.3842 274.609 61.49C274.609 58.5958 276.955 56.2494 279.849 56.2494Z" fill="#03458F" fill-opacity="0.51"/>
<path d="M265.539 439.409C268.433 439.409 270.78 441.755 270.78 444.65C270.78 447.544 268.433 449.89 265.539 449.89C262.645 449.89 260.298 447.544 260.298 444.65C260.298 441.755 262.645 439.409 265.539 439.409Z" fill="#03458F" fill-opacity="0.51"/>
<path d="M381.305 417.617C384.199 417.617 386.545 419.963 386.545 422.858C386.545 425.752 384.199 428.098 381.305 428.098C378.411 428.098 376.064 425.752 376.064 422.858C376.064 419.963 378.411 417.617 381.305 417.617Z" fill="#03458F" fill-opacity="0.51"/>
<path d="M278.504 366.093C281.399 366.093 283.745 368.439 283.745 371.333C283.745 374.227 281.399 376.574 278.504 376.574C275.61 376.574 273.264 374.227 273.264 371.333C273.264 368.439 275.61 366.093 278.504 366.093Z" fill="#03458F" fill-opacity="0.51"/>
<path d="M152.379 414.015C155.273 414.015 157.619 416.362 157.619 419.256C157.619 422.15 155.273 424.497 152.379 424.497C149.485 424.497 147.138 422.15 147.138 419.256C147.138 416.362 149.485 414.015 152.379 414.015Z" fill="#03458F" fill-opacity="0.51"/>
<path d="M444.292 315.699C447.186 315.699 449.533 318.046 449.533 320.94C449.533 323.834 447.186 326.18 444.292 326.18C441.398 326.18 439.051 323.834 439.051 320.94C439.051 318.046 441.398 315.699 444.292 315.699Z" fill="#03458F" fill-opacity="0.51"/>
<path d="M464.256 200.9C467.15 200.9 469.496 203.247 469.496 206.141C469.496 209.035 467.15 211.381 464.256 211.381C461.362 211.381 459.015 209.035 459.015 206.141C459.015 203.247 461.362 200.9 464.256 200.9Z" fill="#03458F" fill-opacity="0.51"/>
<path d="M272.744 132.519C275.639 132.519 277.985 134.865 277.985 137.759C277.985 140.654 275.639 143 272.744 143C269.85 143 267.504 140.654 267.504 137.759C267.504 134.865 269.85 132.519 272.744 132.519Z" fill="#03458F" fill-opacity="0.51"/>
<path d="M387.942 104.373C390.836 104.373 393.183 106.719 393.183 109.614C393.183 112.508 390.836 114.854 387.942 114.854C385.048 114.854 382.702 112.508 382.702 109.614C382.702 106.719 385.048 104.373 387.942 104.373Z" fill="#03458F" fill-opacity="0.51"/>
<path d="M165.153 99.32C168.047 99.32 170.394 101.666 170.394 104.561C170.394 107.455 168.047 109.801 165.153 109.801C162.259 109.801 159.913 107.455 159.913 104.561C159.913 101.666 162.259 99.32 165.153 99.32Z" fill="#03458F" fill-opacity="0.51"/>
<path d="M374.654 211.598C377.548 211.598 379.895 213.944 379.895 216.839C379.895 219.733 377.548 222.079 374.654 222.079C371.76 222.079 369.413 219.733 369.413 216.839C369.413 213.944 371.76 211.598 374.654 211.598Z" fill="#03458F" fill-opacity="0.51"/>
<path d="M281.998 120.482C284.892 120.482 287.239 122.828 287.239 125.723C287.239 128.617 284.892 130.963 281.998 130.963C279.104 130.963 276.757 128.617 276.757 125.723C276.757 122.828 279.104 120.482 281.998 120.482Z" fill="#03458F" fill-opacity="0.51"/>
<path d="M161.648 206.736C164.542 206.736 166.888 209.083 166.888 211.977C166.888 214.871 164.542 217.217 161.648 217.217C158.753 217.217 156.407 214.871 156.407 211.977C156.407 209.083 158.753 206.736 161.648 206.736Z" fill="#03458F" fill-opacity="0.51"/>
<path d="M265.371 239.856C268.265 239.856 270.611 242.202 270.611 245.097C270.611 247.991 268.265 250.337 265.371 250.337C262.476 250.337 260.13 247.991 260.13 245.097C260.13 242.202 262.476 239.856 265.371 239.856Z" fill="#03458F" fill-opacity="0.51"/>
<path d="M91.6478 308.068C94.542 308.068 96.8884 310.414 96.8884 313.308C96.8884 316.202 94.542 318.549 91.6478 318.549C88.7536 318.549 86.4072 316.202 86.4072 313.308C86.4072 310.414 88.7536 308.068 91.6478 308.068Z" fill="#03458F" fill-opacity="0.51"/>
<path d="M329.273 334.828C332.167 334.828 334.514 337.174 334.514 340.068C334.514 342.962 332.167 345.309 329.273 345.309C326.379 345.309 324.032 342.962 324.032 340.068C324.032 337.174 326.379 334.828 329.273 334.828Z" fill="#03458F" fill-opacity="0.51"/>
<g opacity="0.299745">
<path d="M328.85 327.337C322.192 327.337 316.793 332.736 316.793 339.394C316.793 346.053 322.192 351.451 328.85 351.451C335.509 351.451 340.907 346.053 340.907 339.394C340.907 332.736 335.509 327.337 328.85 327.337Z" fill="#03458F" fill-opacity="0.51"/>
<path d="M328.85 327.337C322.192 327.337 316.793 332.736 316.793 339.394C316.793 346.053 322.192 351.451 328.85 351.451C335.509 351.451 340.907 346.053 340.907 339.394C340.907 332.736 335.509 327.337 328.85 327.337Z" stroke="#03458F" stroke-opacity="0.5" stroke-width="2.03325"/>
</g>
<path d="M85.2945 191.002C88.1888 191.002 90.5352 193.348 90.5352 196.242C90.5352 199.137 88.1888 201.483 85.2945 201.483C82.4003 201.483 80.0539 199.137 80.0539 196.242C80.0539 193.348 82.4003 191.002 85.2945 191.002Z" fill="#03458F" fill-opacity="0.51"/>
<path d="M161.83 113.505L215.313 50.7154" stroke="#03458F" stroke-opacity="0.5" stroke-width="2"/>
<path d="M90.7256 136.983L161.187 113.826" stroke="#03458F" stroke-opacity="0.5" stroke-width="2"/>
<path d="M162.179 113.854L297.513 86.9664" stroke="#03458F" stroke-opacity="0.5" stroke-width="2"/>
<path d="M297.513 87.3158L215.313 50.7154" stroke="#03458F" stroke-opacity="0.5" stroke-width="2"/>
<path d="M361.142 55.313L216.011 51.4141" stroke="#03458F" stroke-opacity="0.5" stroke-width="2"/>
<path d="M214.963 45.8241C217.857 45.8241 220.204 48.1705 220.204 51.0647C220.204 53.9589 217.857 56.3054 214.963 56.3054C212.069 56.3054 209.723 53.9589 209.723 51.0647C209.723 48.1705 212.069 45.8241 214.963 45.8241Z" fill="#03458F" fill-opacity="0.51"/>
<path d="M161.83 108.963C164.724 108.963 167.071 111.31 167.071 114.204C167.071 117.098 164.724 119.444 161.83 119.444C158.936 119.444 156.589 117.098 156.589 114.204C156.589 111.31 158.936 108.963 161.83 108.963Z" fill="#03458F" fill-opacity="0.51"/>
<g opacity="0.401556">
<path d="M216.247 191.373C209.394 191.373 203.837 196.929 203.837 203.782C203.837 210.636 209.394 216.192 216.247 216.192C223.101 216.192 228.657 210.636 228.657 203.782C228.657 196.929 223.101 191.373 216.247 191.373Z" fill="#03458F" fill-opacity="0.51"/>
<path d="M216.247 191.373C209.394 191.373 203.837 196.929 203.837 203.782C203.837 210.636 209.394 216.192 216.247 216.192C223.101 216.192 228.657 210.636 228.657 203.782C228.657 196.929 223.101 191.373 216.247 191.373Z" stroke="#03458F" stroke-opacity="0.5" stroke-width="1.92747"/>
</g>
<path d="M422.471 362.812L406.365 473.193" stroke="#03458F" stroke-opacity="0.5" stroke-width="2"/>
<path d="M495.302 241.656L423.17 362.463" stroke="#03458F" stroke-opacity="0.5" stroke-width="2"/>
<path d="M423.17 362.463L493.862 371.232" stroke="#03458F" stroke-opacity="0.5" stroke-width="2"/>
<path d="M405.666 472.844L493.862 371.232" stroke="#03458F" stroke-opacity="0.5" stroke-width="2"/>
<path d="M460.672 419.264L493.862 371.232" stroke="#03458F" stroke-opacity="0.5" stroke-width="2"/>
<path d="M461.196 419.526L405.404 472.757" stroke="#03458F" stroke-opacity="0.5" stroke-width="2"/>
<path d="M405.491 472.058L343.67 498.569" stroke="#03458F" stroke-opacity="0.5" stroke-width="2"/>
<path d="M512.869 285.886L493.862 371.232" stroke="#03458F" stroke-opacity="0.5" stroke-width="2"/>
<path d="M494.952 242.354L512.869 286.585" stroke="#03458F" stroke-opacity="0.5" stroke-width="2"/>
<path d="M494.603 242.354L493.862 371.232" stroke="#03458F" stroke-opacity="0.5" stroke-width="2"/>
<path d="M493.513 366.341C496.407 366.341 498.754 368.687 498.754 371.581C498.754 374.475 496.407 376.822 493.513 376.822C490.619 376.822 488.272 374.475 488.272 371.581C488.272 368.687 490.619 366.341 493.513 366.341Z" fill="#03458F" fill-opacity="0.51"/>
<path d="M461.021 414.373C463.916 414.373 466.262 416.719 466.262 419.613C466.262 422.507 463.916 424.854 461.021 424.854C458.127 424.854 455.781 422.507 455.781 419.613C455.781 416.719 458.127 414.373 461.021 414.373Z" fill="#03458F" fill-opacity="0.51"/>
<path d="M512.694 280.296C515.588 280.296 517.934 282.643 517.934 285.537C517.934 288.431 515.588 290.778 512.694 290.778C509.8 290.778 507.453 288.431 507.453 285.537C507.453 282.643 509.8 280.296 512.694 280.296Z" fill="#03458F" fill-opacity="0.51"/>
<path d="M494.428 236.764C497.322 236.764 499.669 239.111 499.669 242.005C499.669 244.899 497.322 247.246 494.428 247.246C491.534 247.246 489.188 244.899 489.188 242.005C489.188 239.111 491.534 236.764 494.428 236.764Z" fill="#03458F" fill-opacity="0.51"/>
<path d="M406.016 467.603C408.91 467.603 411.256 469.95 411.256 472.844C411.256 475.738 408.91 478.085 406.016 478.085C403.121 478.085 400.775 475.738 400.775 472.844C400.775 469.95 403.121 467.603 406.016 467.603Z" fill="#03458F" fill-opacity="0.51"/>
<path d="M343.058 493.066C345.953 493.066 348.299 495.412 348.299 498.307C348.299 501.201 345.953 503.547 343.058 503.547C340.164 503.547 337.818 501.201 337.818 498.307C337.818 495.412 340.164 493.066 343.058 493.066Z" fill="#03458F" fill-opacity="0.51"/>
<path d="M359.975 56.5987L426.118 120.122" stroke="#03458F" stroke-opacity="0.5" stroke-width="2"/>
<path d="M495.051 243.36L473.727 146.052" stroke="#03458F" stroke-opacity="0.5" stroke-width="2"/>
<path d="M426.209 119.423L473.766 145.605" stroke="#03458F" stroke-opacity="0.5" stroke-width="2"/>
<path d="M513.509 285.856L474.174 146.421" stroke="#03458F" stroke-opacity="0.5" stroke-width="2"/>
<path d="M474.29 146.479L360.499 55.7252" stroke="#03458F" stroke-opacity="0.5" stroke-width="2"/>
<path d="M359.8 56.5987L296.787 86.617" stroke="#03458F" stroke-opacity="0.5" stroke-width="2"/>
<path d="M474.116 140.714C477.01 140.714 479.356 143.061 479.356 145.955C479.356 148.849 477.01 151.195 474.116 151.195C471.222 151.195 468.875 148.849 468.875 145.955C468.875 143.061 471.222 140.714 474.116 140.714Z" fill="#03458F" fill-opacity="0.51"/>
<path d="M360.674 50.6593C363.568 50.6593 365.914 53.0057 365.914 55.8999C365.914 58.7941 363.568 61.1405 360.674 61.1405C357.779 61.1405 355.433 58.7941 355.433 55.8999C355.433 53.0057 357.779 50.6593 360.674 50.6593Z" fill="#03458F" fill-opacity="0.51"/>
<path d="M90.4042 136.459L84.2445 230.294" stroke="#03458F" stroke-opacity="0.5" stroke-width="2"/>
<path d="M84.2886 231.168L72.5148 362.721" stroke="#03458F" stroke-opacity="0.5" stroke-width="2"/>
<path d="M71.8594 362.197L85.2184 412.891" stroke="#03458F" stroke-opacity="0.5" stroke-width="2"/>
<path d="M212.916 51.2115L90.7102 136.983" stroke="#03458F" stroke-opacity="0.5" stroke-width="2"/>
<path d="M85.7857 412.193L42.3024 273.966" stroke="#03458F" stroke-opacity="0.5" stroke-width="2"/>
<path d="M72.2087 362.721L42.3024 273.966" stroke="#03458F" stroke-opacity="0.5" stroke-width="2"/>
<path d="M162.026 357.467L71.51 362.721" stroke="#03458F" stroke-opacity="0.5" stroke-width="2"/>
<path d="M158.351 471.083L71.9467 362.983" stroke="#03458F" stroke-opacity="0.5" stroke-width="2"/>
<path d="M157.914 469.424L86.3971 412.804" stroke="#03458F" stroke-opacity="0.5" stroke-width="2"/>
<path d="M85.2249 230.644L42.3024 273.966" stroke="#03458F" stroke-opacity="0.5" stroke-width="2"/>
<path d="M90.5789 136.634L42.3024 273.966" stroke="#03458F" stroke-opacity="0.5" stroke-width="2"/>
<path d="M41.953 269.075C44.8472 269.075 47.1937 271.421 47.1937 274.315C47.1937 277.21 44.8472 279.556 41.953 279.556C39.0588 279.556 36.7124 277.21 36.7124 274.315C36.7124 271.421 39.0588 269.075 41.953 269.075Z" fill="#03458F" fill-opacity="0.51"/>
<path d="M71.8594 357.131C74.7536 357.131 77.1 359.478 77.1 362.372C77.1 365.266 74.7536 367.613 71.8594 367.613C68.9651 367.613 66.6187 365.266 66.6187 362.372C66.6187 359.478 68.9651 357.131 71.8594 357.131Z" fill="#03458F" fill-opacity="0.51"/>
<path d="M85.9604 406.952C88.8546 406.952 91.201 409.298 91.201 412.193C91.201 415.087 88.8546 417.433 85.9604 417.433C83.0662 417.433 80.7198 415.087 80.7198 412.193C80.7198 409.298 83.0662 406.952 85.9604 406.952Z" fill="#03458F" fill-opacity="0.51"/>
<path d="M91.103 131.044C93.9972 131.044 96.3436 133.39 96.3436 136.284C96.3436 139.179 93.9972 141.525 91.103 141.525C88.2087 141.525 85.8623 139.179 85.8623 136.284C85.8623 133.39 88.2087 131.044 91.103 131.044Z" fill="#03458F" fill-opacity="0.51"/>
<path d="M426.251 120.017L381.922 207.291" stroke="#03458F" stroke-opacity="0.5" stroke-width="2"/>
<path d="M494.659 241.767L381.922 207.291" stroke="#03458F" stroke-opacity="0.5" stroke-width="2"/>
<path d="M298.715 324.423L381.922 207.291" stroke="#03458F" stroke-opacity="0.5" stroke-width="2"/>
<path d="M422.618 362.49L381.922 207.291" stroke="#03458F" stroke-opacity="0.5" stroke-width="2"/>
<path d="M426.104 118.913L495.274 242.41" stroke="#03458F" stroke-opacity="0.5" stroke-width="2"/>
<path d="M426.104 118.913L296.996 86.2397" stroke="#03458F" stroke-opacity="0.5" stroke-width="2"/>
<path d="M296.661 85.7087L381.922 207.291" stroke="#03458F" stroke-opacity="0.5" stroke-width="2"/>
<path d="M381.573 202.4C384.467 202.4 386.813 204.746 386.813 207.64C386.813 210.535 384.467 212.881 381.573 212.881C378.679 212.881 376.332 210.535 376.332 207.64C376.332 204.746 378.679 202.4 381.573 202.4Z" fill="#03458F" fill-opacity="0.51"/>
<path d="M425.846 113.7C428.74 113.7 431.086 116.047 431.086 118.941C431.086 121.835 428.74 124.182 425.846 124.182C422.952 124.182 420.605 121.835 420.605 118.941C420.605 116.047 422.952 113.7 425.846 113.7Z" fill="#03458F" fill-opacity="0.51"/>
<path d="M160.866 113.267L216.43 203.895" stroke="#03458F" stroke-opacity="0.5" stroke-width="2"/>
<path d="M85.5826 230.126L216.43 203.895" stroke="#03458F" stroke-opacity="0.5" stroke-width="2"/>
<path d="M161.163 356.056L85.3112 229.94" stroke="#03458F" stroke-opacity="0.5" stroke-width="2"/>
<path d="M85.6606 229.94L160.972 114.518" stroke="#03458F" stroke-opacity="0.5" stroke-width="2"/>
<path d="M161.872 357.467L216.43 203.895" stroke="#03458F" stroke-opacity="0.5" stroke-width="2"/>
<path d="M299.036 325.548L216.43 203.895" stroke="#03458F" stroke-opacity="0.5" stroke-width="2"/>
<path d="M381.517 207.962L216.43 203.252" stroke="#03458F" stroke-opacity="0.5" stroke-width="2"/>
<path d="M296.898 86.5052L216.43 203.895" stroke="#03458F" stroke-opacity="0.5" stroke-width="2"/>
<path d="M216.081 199.004C218.975 199.004 221.321 201.35 221.321 204.245C221.321 207.139 218.975 209.485 216.081 209.485C213.187 209.485 210.84 207.139 210.84 204.245C210.84 201.35 213.187 199.004 216.081 199.004Z" fill="#03458F" fill-opacity="0.51"/>
<path d="M85.9147 225.358C88.8089 225.358 91.1553 227.704 91.1553 230.598C91.1553 233.492 88.8089 235.839 85.9147 235.839C83.0205 235.839 80.6741 233.492 80.6741 230.598C80.6741 227.704 83.0205 225.358 85.9147 225.358Z" fill="#03458F" fill-opacity="0.51"/>
<path d="M296.823 81.2688C299.717 81.2688 302.064 83.6152 302.064 86.5094C302.064 89.4037 299.717 91.7501 296.823 91.7501C293.929 91.7501 291.582 89.4037 291.582 86.5094C291.582 83.6152 293.929 81.2688 296.823 81.2688Z" fill="#03458F" fill-opacity="0.51"/>
<path d="M161.538 351.987C164.432 351.987 166.779 354.333 166.779 357.228C166.779 360.122 164.432 362.468 161.538 362.468C158.644 362.468 156.297 360.122 156.297 357.228C156.297 354.333 158.644 351.987 161.538 351.987Z" fill="#03458F" fill-opacity="0.51"/>
<g opacity="0.185993">
<path d="M296.525 74.1497C290 74.1497 284.71 79.706 284.71 86.5595C284.71 93.4131 290 98.9693 296.525 98.9693C303.049 98.9693 308.339 93.4131 308.339 86.5595C308.339 79.706 303.049 74.1497 296.525 74.1497Z" fill="#03458F" fill-opacity="0.51"/>
<path d="M296.525 74.1497C290 74.1497 284.71 79.706 284.71 86.5595C284.71 93.4131 290 98.9693 296.525 98.9693C303.049 98.9693 308.339 93.4131 308.339 86.5595C308.339 79.706 303.049 74.1497 296.525 74.1497Z" stroke="#03458F" stroke-opacity="0.5" stroke-width="0.871091"/>
</g>
<path d="M161.467 357.439L157.037 469.728" stroke="#03458F" stroke-opacity="0.5" stroke-width="2"/>
<path d="M299.002 324.437L423.135 361.631" stroke="#03458F" stroke-opacity="0.5" stroke-width="2"/>
<path d="M157.649 469.522L278.587 515.114" stroke="#03458F" stroke-opacity="0.5" stroke-width="2"/>
<path d="M278.976 513.931L289.429 452.846" stroke="#03458F" stroke-opacity="0.5" stroke-width="2"/>
<path d="M157.33 466.681L289.254 452.497" stroke="#03458F" stroke-opacity="0.5" stroke-width="2"/>
<path d="M161.117 356.715L289.254 452.497" stroke="#03458F" stroke-opacity="0.5" stroke-width="2"/>
<path d="M161.159 356.869L293.7 325.413" stroke="#03458F" stroke-opacity="0.5" stroke-width="2"/>
<path d="M405.995 472.795L289.254 452.147" stroke="#03458F" stroke-opacity="0.5" stroke-width="2"/>
<path d="M345.658 497.664L279.151 514.979" stroke="#03458F" stroke-opacity="0.5" stroke-width="2"/>
<path d="M424.581 362.141L289.254 452.147" stroke="#03458F" stroke-opacity="0.5" stroke-width="2"/>
<path d="M299.295 324.947L288.905 452.497" stroke="#03458F" stroke-opacity="0.5" stroke-width="2"/>
<path d="M287.857 445.16C290.751 445.16 293.097 447.506 293.097 450.4C293.097 453.295 290.751 455.641 287.857 455.641C284.963 455.641 282.616 453.295 282.616 450.4C282.616 447.506 284.963 445.16 287.857 445.16Z" fill="#03458F" fill-opacity="0.51"/>
<path d="M278.103 509.389C280.997 509.389 283.343 511.735 283.343 514.629C283.343 517.524 280.997 519.87 278.103 519.87C275.208 519.87 272.862 517.524 272.862 514.629C272.862 511.735 275.208 509.389 278.103 509.389Z" fill="#03458F" fill-opacity="0.51"/>
<path d="M156.981 463.925C159.875 463.925 162.222 466.272 162.222 469.166C162.222 472.06 159.875 474.407 156.981 474.407C154.087 474.407 151.74 472.06 151.74 469.166C151.74 466.272 154.087 463.925 156.981 463.925Z" fill="#03458F" fill-opacity="0.51"/>
<path d="M297.548 320.055C300.442 320.055 302.789 322.402 302.789 325.296C302.789 328.19 300.442 330.537 297.548 330.537C294.654 330.537 292.307 328.19 292.307 325.296C292.307 322.402 294.654 320.055 297.548 320.055Z" fill="#03458F" fill-opacity="0.51"/>
<path d="M422.135 357.599C425.03 357.599 427.376 359.946 427.376 362.84C427.376 365.734 425.03 368.08 422.135 368.08C419.241 368.08 416.895 365.734 416.895 362.84C416.895 359.946 419.241 357.599 422.135 357.599Z" fill="#03458F" fill-opacity="0.51"/>
<path d="M406.382 473.933L278.883 514.865" stroke="#03458F" stroke-opacity="0.5" stroke-width="2"/>
<path d="M157.724 470.179L199.819 495.417" stroke="#03458F" stroke-opacity="0.5" stroke-width="2"/>
<path d="M199.884 496.092L279.03 515.819" stroke="#03458F" stroke-opacity="0.5" stroke-width="2"/>
<path d="M200.282 491.18C203.177 491.18 205.523 493.526 205.523 496.421C205.523 499.315 203.177 501.661 200.282 501.661C197.388 501.661 195.042 499.315 195.042 496.421C195.042 493.526 197.388 491.18 200.282 491.18Z" fill="#03458F" fill-opacity="0.51"/>
</svg>
