<svg width="1320" height="700" viewBox="0 0 1320 700" fill="none" xmlns="http://www.w3.org/2000/svg">
<mask id="mask0_15_31" style="mask-type:alpha" maskUnits="userSpaceOnUse" x="0" y="0" width="1320" height="700">
<rect width="1320" height="700" rx="30" fill="white"/>
</mask>
<g mask="url(#mask0_15_31)">
<path d="M1393.9 699.855V589.554H1187.84V699.855H1187.52V589.554H981.469V699.855H981.148V589.554H775.096V699.855H774.776V589.554H568.722V699.855H568.402V589.554H362.35V699.855H362.026V589.554H155.976V699.855H155.657V589.554H-50.3959V699.855H-50.717V589.554H-253.686V589.265H-50.717V424.972H-253.686V424.681H-50.717V260.38H-253.686V260.09H-50.717V95.7925H-253.686V95.5031H-50.717V0.144699H-50.3959V95.5043H155.657V0.144699H155.976V95.5043H362.026V0.144699H362.346V95.5043H568.404V0.144699H568.723V95.5043H774.776V0.144699H775.096V95.5043H981.149V0.144699H981.471V95.5043H1187.52V0.144699H1187.84V95.5043H1393.9V0.144699H1394.22V95.5043H1586.98V95.7937H1394.22V260.09H1586.98V260.38H1394.22V424.676H1586.98V424.967H1394.22V589.265H1586.98V589.554H1394.22V699.855H1393.9ZM1187.84 589.265H1393.9V424.972H1187.84V589.265ZM981.469 589.265H1187.52V424.972H981.469V589.265ZM775.094 589.265H981.149V424.972H775.096L775.094 589.265ZM568.721 589.265H774.776V424.972H568.722L568.721 589.265ZM362.347 589.265H568.404V424.972H362.35L362.347 589.265ZM155.974 589.265H362.026V424.972H155.976L155.974 589.265ZM-50.3997 589.265H155.657V424.972H-50.3959L-50.3997 589.265ZM1187.84 424.676H1393.9V260.38H1187.84V424.676ZM981.469 424.676H1187.52V260.38H981.469V424.676ZM775.094 424.676H981.149V260.38H775.096L775.094 424.676ZM568.721 424.676H774.776V260.38H568.722L568.721 424.676ZM362.347 424.676H568.404V260.38H362.35L362.347 424.676ZM155.974 424.676H362.026V260.38H155.976L155.974 424.676ZM-50.3997 424.676H155.657V260.38H-50.3959L-50.3997 424.676ZM1187.84 260.09H1393.9V95.7925H1187.84V260.09ZM981.469 260.09H1187.52V95.7925H981.469V260.09ZM775.094 260.09H981.149V95.7925H775.096L775.094 260.09ZM568.721 260.09H774.776V95.7925H568.722L568.721 260.09ZM362.347 260.09H568.404V95.7925H362.35L362.347 260.09ZM155.974 260.09H362.026V95.7925H155.976L155.974 260.09ZM-50.3997 260.09H155.657V95.7925H-50.3959L-50.3997 260.09Z" fill="#03468F" fill-opacity="0.21"/>
</g>
</svg>
